<svg width="709" height="285" viewBox="0 0 709 285" fill="none" xmlns="http://www.w3.org/2000/svg">
<g filter="url(#filter0_f_0_1)">
<ellipse cx="86.757" cy="77.2888" rx="63.2847" ry="63.5169" fill="#1DB954" fill-opacity="0.75"/>
</g>
<g filter="url(#filter1_f_0_1)">
<ellipse cx="56.3802" cy="61.8742" rx="56.3802" ry="61.8742" transform="matrix(0.992744 0.120246 -0.119381 0.992849 486.107 150.578)" fill="#1DB954" fill-opacity="0.75"/>
</g>
<g filter="url(#filter2_f_0_1)">
<ellipse cx="257.139" cy="165.235" rx="116.833" ry="102.604" fill="#1DB954" fill-opacity="0.5"/>
</g>
<g filter="url(#filter3_f_0_1)">
<ellipse cx="52.6806" cy="233.638" rx="48.6806" ry="43.9733" fill="#1DB954" fill-opacity="0.5"/>
</g>
<g filter="url(#filter4_f_0_1)">
<ellipse cx="656.319" cy="87.0606" rx="48.6806" ry="43.9733" fill="#1DB954" fill-opacity="0.5"/>
</g>
<g filter="url(#filter5_f_0_1)">
<ellipse cx="432.389" cy="96.8324" rx="107.097" ry="92.8324" fill="#1DB954" fill-opacity="0.3"/>
</g>
<path d="M95.892 140C95.7027 137.633 94.8149 135.786 93.2287 134.46C91.6662 133.134 89.2869 132.472 86.0909 132.472C84.0549 132.472 82.3859 132.72 81.0838 133.217C79.8054 133.691 78.8584 134.342 78.2429 135.17C77.6274 135.999 77.3078 136.946 77.2841 138.011C77.2367 138.887 77.3906 139.68 77.7457 140.391C78.1245 141.077 78.7164 141.705 79.5213 142.273C80.3262 142.817 81.3561 143.314 82.6108 143.764C83.8655 144.214 85.357 144.616 87.0852 144.972L93.0511 146.25C97.0758 147.102 100.52 148.227 103.385 149.624C106.25 151.02 108.593 152.666 110.416 154.56C112.239 156.43 113.577 158.537 114.429 160.881C115.305 163.224 115.755 165.781 115.778 168.551C115.755 173.333 114.559 177.382 112.192 180.696C109.824 184.01 106.439 186.532 102.036 188.26C97.6558 189.988 92.3883 190.852 86.233 190.852C79.9119 190.852 74.3958 189.917 69.6847 188.047C64.9972 186.177 61.3513 183.3 58.7472 179.418C56.1667 175.511 54.8646 170.516 54.8409 164.432H73.5909C73.7093 166.657 74.2656 168.527 75.2599 170.043C76.2543 171.558 77.651 172.706 79.4503 173.487C81.2732 174.268 83.4394 174.659 85.9489 174.659C88.0559 174.659 89.8196 174.399 91.2401 173.878C92.6605 173.357 93.7377 172.635 94.4716 171.712C95.2055 170.788 95.5843 169.735 95.608 168.551C95.5843 167.438 95.2173 166.468 94.5071 165.639C93.8206 164.787 92.6842 164.029 91.098 163.366C89.5118 162.68 87.3693 162.041 84.6705 161.449L77.4261 159.886C70.9867 158.49 65.9086 156.158 62.1918 152.891C58.4986 149.6 56.6638 145.114 56.6875 139.432C56.6638 134.815 57.8949 130.779 60.3807 127.322C62.8902 123.842 66.3584 121.132 70.7855 119.19C75.2363 117.249 80.3381 116.278 86.0909 116.278C91.9621 116.278 97.0402 117.261 101.325 119.226C105.61 121.191 108.913 123.961 111.233 127.536C113.577 131.087 114.76 135.241 114.784 140H95.892ZM120.306 117.273H142.323L156.528 146.818H157.096L171.3 117.273H193.317L166.613 167.131V190H147.011V167.131L120.306 117.273ZM238.958 140C238.769 137.633 237.881 135.786 236.295 134.46C234.733 133.134 232.353 132.472 229.157 132.472C227.121 132.472 225.452 132.72 224.15 133.217C222.872 133.691 221.925 134.342 221.309 135.17C220.694 135.999 220.374 136.946 220.35 138.011C220.303 138.887 220.457 139.68 220.812 140.391C221.191 141.077 221.783 141.705 222.588 142.273C223.393 142.817 224.422 143.314 225.677 143.764C226.932 144.214 228.423 144.616 230.152 144.972L236.118 146.25C240.142 147.102 243.587 148.227 246.451 149.624C249.316 151.02 251.66 152.666 253.483 154.56C255.306 156.43 256.643 158.537 257.495 160.881C258.371 163.224 258.821 165.781 258.845 168.551C258.821 173.333 257.626 177.382 255.258 180.696C252.891 184.01 249.505 186.532 245.102 188.26C240.722 189.988 235.455 190.852 229.299 190.852C222.978 190.852 217.462 189.917 212.751 188.047C208.064 186.177 204.418 183.3 201.814 179.418C199.233 175.511 197.931 170.516 197.907 164.432H216.657C216.776 166.657 217.332 168.527 218.326 170.043C219.321 171.558 220.717 172.706 222.517 173.487C224.34 174.268 226.506 174.659 229.015 174.659C231.122 174.659 232.886 174.399 234.306 173.878C235.727 173.357 236.804 172.635 237.538 171.712C238.272 170.788 238.651 169.735 238.674 168.551C238.651 167.438 238.284 166.468 237.574 165.639C236.887 164.787 235.751 164.029 234.164 163.366C232.578 162.68 230.436 162.041 227.737 161.449L220.493 159.886C214.053 158.49 208.975 156.158 205.258 152.891C201.565 149.6 199.73 145.114 199.754 139.432C199.73 134.815 200.961 130.779 203.447 127.322C205.957 123.842 209.425 121.132 213.852 119.19C218.303 117.249 223.404 116.278 229.157 116.278C235.029 116.278 240.107 117.261 244.392 119.226C248.677 121.191 251.979 123.961 254.299 127.536C256.643 131.087 257.827 135.241 257.85 140H238.958ZM264.367 133.182V117.273H327.577V133.182H305.702V190H286.242V133.182H264.367ZM335.008 190V117.273H366.4C371.798 117.273 376.521 118.255 380.569 120.22C384.617 122.185 387.766 125.014 390.015 128.707C392.264 132.401 393.388 136.828 393.388 141.989C393.388 147.197 392.228 151.589 389.908 155.163C387.612 158.738 384.38 161.437 380.214 163.26C376.071 165.083 371.229 165.994 365.69 165.994H346.94V150.653H361.712C364.032 150.653 366.009 150.369 367.643 149.801C369.3 149.209 370.567 148.274 371.442 146.996C372.342 145.717 372.792 144.048 372.792 141.989C372.792 139.905 372.342 138.213 371.442 136.911C370.567 135.585 369.3 134.614 367.643 133.999C366.009 133.359 364.032 133.04 361.712 133.04H354.752V190H335.008ZM377.621 156.619L395.803 190H374.354L356.599 156.619H377.621ZM444.844 117.273H464.589V163.864C464.589 169.403 463.263 174.197 460.612 178.246C457.984 182.27 454.314 185.384 449.603 187.585C444.892 189.763 439.423 190.852 433.197 190.852C426.923 190.852 421.431 189.763 416.719 187.585C412.008 185.384 408.339 182.27 405.711 178.246C403.107 174.197 401.805 169.403 401.805 163.864V117.273H421.549V162.159C421.549 164.408 422.046 166.42 423.04 168.196C424.035 169.948 425.408 171.321 427.16 172.315C428.935 173.31 430.948 173.807 433.197 173.807C435.469 173.807 437.482 173.31 439.234 172.315C440.986 171.321 442.359 169.948 443.353 168.196C444.347 166.42 444.844 164.408 444.844 162.159V117.273ZM473.973 117.273H498.547L515.45 158.466H516.302L533.206 117.273H557.779V190H538.461V147.955H537.893L521.7 189.432H510.052L493.859 147.67H493.291V190H473.973V117.273Z" fill="white"/>
<path d="M640.498 101.718V59.3737L684.311 52.8592V95.2038" stroke="white" stroke-width="8" stroke-linecap="round" stroke-linejoin="round"/>
<path d="M629.545 111.49C635.594 111.49 640.498 107.115 640.498 101.718C640.498 96.3215 635.594 91.9465 629.545 91.9465C623.496 91.9465 618.592 96.3215 618.592 101.718C618.592 107.115 623.496 111.49 629.545 111.49Z" stroke="white" stroke-width="8" stroke-linecap="round" stroke-linejoin="round"/>
<path d="M673.358 104.976C679.407 104.976 684.311 100.601 684.311 95.2038C684.311 89.807 679.407 85.432 673.358 85.432C667.308 85.432 662.404 89.807 662.404 95.2038C662.404 100.601 667.308 104.976 673.358 104.976Z" stroke="white" stroke-width="8" stroke-linecap="round" stroke-linejoin="round"/>
<defs>
<filter id="filter0_f_0_1" x="19.4723" y="9.77185" width="134.569" height="135.034" filterUnits="userSpaceOnUse" color-interpolation-filters="sRGB">
<feFlood flood-opacity="0" result="BackgroundImageFix"/>
<feBlend mode="normal" in="SourceGraphic" in2="BackgroundImageFix" result="shape"/>
<feGaussianBlur stdDeviation="2" result="effect1_foregroundBlur_0_1"/>
</filter>
<filter id="filter1_f_0_1" x="474.228" y="152.979" width="120.926" height="131.62" filterUnits="userSpaceOnUse" color-interpolation-filters="sRGB">
<feFlood flood-opacity="0" result="BackgroundImageFix"/>
<feBlend mode="normal" in="SourceGraphic" in2="BackgroundImageFix" result="shape"/>
<feGaussianBlur stdDeviation="2" result="effect1_foregroundBlur_0_1"/>
</filter>
<filter id="filter2_f_0_1" x="136.305" y="58.631" width="241.667" height="213.209" filterUnits="userSpaceOnUse" color-interpolation-filters="sRGB">
<feFlood flood-opacity="0" result="BackgroundImageFix"/>
<feBlend mode="normal" in="SourceGraphic" in2="BackgroundImageFix" result="shape"/>
<feGaussianBlur stdDeviation="2" result="effect1_foregroundBlur_0_1"/>
</filter>
<filter id="filter3_f_0_1" x="0" y="185.665" width="105.361" height="95.9465" filterUnits="userSpaceOnUse" color-interpolation-filters="sRGB">
<feFlood flood-opacity="0" result="BackgroundImageFix"/>
<feBlend mode="normal" in="SourceGraphic" in2="BackgroundImageFix" result="shape"/>
<feGaussianBlur stdDeviation="2" result="effect1_foregroundBlur_0_1"/>
</filter>
<filter id="filter4_f_0_1" x="603.639" y="39.0873" width="105.361" height="95.9465" filterUnits="userSpaceOnUse" color-interpolation-filters="sRGB">
<feFlood flood-opacity="0" result="BackgroundImageFix"/>
<feBlend mode="normal" in="SourceGraphic" in2="BackgroundImageFix" result="shape"/>
<feGaussianBlur stdDeviation="2" result="effect1_foregroundBlur_0_1"/>
</filter>
<filter id="filter5_f_0_1" x="321.292" y="0" width="222.194" height="193.665" filterUnits="userSpaceOnUse" color-interpolation-filters="sRGB">
<feFlood flood-opacity="0" result="BackgroundImageFix"/>
<feBlend mode="normal" in="SourceGraphic" in2="BackgroundImageFix" result="shape"/>
<feGaussianBlur stdDeviation="2" result="effect1_foregroundBlur_0_1"/>
</filter>
</defs>
</svg>
