<svg width="627" height="179" viewBox="0 0 627 179" fill="none" xmlns="http://www.w3.org/2000/svg">
<mask id="path-1-outside-1_0_1" maskUnits="userSpaceOnUse" x="-0.33506" y="99.7831" width="507" height="79" fill="black">
<rect fill="white" x="-0.33506" y="99.7831" width="507" height="79"/>
<path d="M42.557 125.783C42.3676 123.416 41.4798 121.569 39.8936 120.243C38.3311 118.918 35.9519 118.255 32.7558 118.255C30.7199 118.255 29.0508 118.503 27.7487 119C26.4703 119.474 25.5234 120.125 24.9078 120.954C24.2923 121.782 23.9727 122.729 23.949 123.794C23.9017 124.67 24.0556 125.464 24.4107 126.174C24.7895 126.86 25.3813 127.488 26.1862 128.056C26.9912 128.6 28.021 129.098 29.2757 129.547C30.5305 129.997 32.0219 130.4 33.7502 130.755L39.7161 132.033C43.7407 132.885 47.1853 134.01 50.0499 135.407C52.9145 136.803 55.2582 138.449 57.0811 140.343C58.9041 142.213 60.2416 144.32 61.0939 146.664C61.9699 149.008 62.4197 151.564 62.4434 154.334C62.4197 159.116 61.2241 163.165 58.8567 166.479C56.4893 169.794 53.1039 172.315 48.7005 174.043C44.3207 175.771 39.0532 176.635 32.8979 176.635C26.5769 176.635 21.0608 175.7 16.3496 173.83C11.6621 171.96 8.01627 169.083 5.4121 165.201C2.83161 161.294 1.52952 156.299 1.50585 150.215H20.2558C20.3742 152.44 20.9306 154.311 21.9249 155.826C22.9192 157.341 24.316 158.489 26.1152 159.27C27.9381 160.052 30.1043 160.442 32.6138 160.442C34.7208 160.442 36.4845 160.182 37.905 159.661C39.3255 159.14 40.4026 158.418 41.1365 157.495C41.8704 156.571 42.2492 155.518 42.2729 154.334C42.2492 153.222 41.8823 152.251 41.172 151.422C40.4855 150.57 39.3491 149.812 37.763 149.15C36.1768 148.463 34.0343 147.824 31.3354 147.232L24.0911 145.669C17.6517 144.273 12.5736 141.941 8.8567 138.674C5.16352 135.383 3.32877 130.897 3.35244 125.215C3.32877 120.598 4.55983 116.562 7.04562 113.106C9.55509 109.625 13.0234 106.915 17.4505 104.973C21.9012 103.032 27.003 102.062 32.7558 102.062C38.6271 102.062 43.7052 103.044 47.9902 105.009C52.2753 106.974 55.5778 109.744 57.8979 113.319C60.2416 116.87 61.4254 121.025 61.449 125.783H42.557ZM66.971 103.056H88.9881L103.193 132.601H103.761L117.965 103.056H139.982L113.278 152.914V175.783H93.6756V152.914L66.971 103.056ZM185.623 125.783C185.434 123.416 184.546 121.569 182.96 120.243C181.398 118.918 179.018 118.255 175.822 118.255C173.786 118.255 172.117 118.503 170.815 119C169.537 119.474 168.59 120.125 167.974 120.954C167.359 121.782 167.039 122.729 167.015 123.794C166.968 124.67 167.122 125.464 167.477 126.174C167.856 126.86 168.448 127.488 169.253 128.056C170.058 128.6 171.087 129.098 172.342 129.547C173.597 129.997 175.088 130.4 176.817 130.755L182.782 132.033C186.807 132.885 190.252 134.01 193.116 135.407C195.981 136.803 198.325 138.449 200.148 140.343C201.97 142.213 203.308 144.32 204.16 146.664C205.036 149.008 205.486 151.564 205.51 154.334C205.486 159.116 204.291 163.165 201.923 166.479C199.556 169.794 196.17 172.315 191.767 174.043C187.387 175.771 182.12 176.635 175.964 176.635C169.643 176.635 164.127 175.7 159.416 173.83C154.729 171.96 151.083 169.083 148.479 165.201C145.898 161.294 144.596 156.299 144.572 150.215H163.322C163.441 152.44 163.997 154.311 164.991 155.826C165.986 157.341 167.382 158.489 169.182 159.27C171.005 160.052 173.171 160.442 175.68 160.442C177.787 160.442 179.551 160.182 180.971 159.661C182.392 159.14 183.469 158.418 184.203 157.495C184.937 156.571 185.316 155.518 185.339 154.334C185.316 153.222 184.949 152.251 184.238 151.422C183.552 150.57 182.416 149.812 180.829 149.15C179.243 148.463 177.101 147.824 174.402 147.232L167.157 145.669C160.718 144.273 155.64 141.941 151.923 138.674C148.23 135.383 146.395 130.897 146.419 125.215C146.395 120.598 147.626 116.562 150.112 113.106C152.621 109.625 156.09 106.915 160.517 104.973C164.968 103.032 170.069 102.062 175.822 102.062C181.693 102.062 186.772 103.044 191.057 105.009C195.342 106.974 198.644 109.744 200.964 113.319C203.308 116.87 204.492 121.025 204.515 125.783H185.623ZM211.032 118.965V103.056H274.242V118.965H252.367V175.783H232.907V118.965H211.032ZM281.673 175.783V103.056H313.065C318.463 103.056 323.186 104.038 327.234 106.003C331.282 107.968 334.431 110.797 336.68 114.491C338.929 118.184 340.053 122.611 340.053 127.772C340.053 132.98 338.893 137.372 336.573 140.946C334.277 144.521 331.045 147.22 326.879 149.043C322.736 150.866 317.894 151.777 312.355 151.777H293.605V136.437H308.377C310.697 136.437 312.674 136.152 314.308 135.584C315.965 134.992 317.231 134.057 318.107 132.779C319.007 131.5 319.457 129.831 319.457 127.772C319.457 125.688 319.007 123.996 318.107 122.694C317.231 121.368 315.965 120.397 314.308 119.782C312.674 119.142 310.697 118.823 308.377 118.823H301.417V175.783H281.673ZM324.286 142.402L342.468 175.783H321.019L303.264 142.402H324.286ZM391.509 103.056H411.254V149.647C411.254 155.187 409.928 159.981 407.276 164.029C404.649 168.053 400.979 171.167 396.268 173.368C391.557 175.546 386.088 176.635 379.862 176.635C373.588 176.635 368.096 175.546 363.384 173.368C358.673 171.167 355.004 168.053 352.376 164.029C349.772 159.981 348.47 155.187 348.47 149.647V103.056H368.214V147.942C368.214 150.191 368.711 152.204 369.705 153.979C370.7 155.731 372.073 157.104 373.825 158.098C375.6 159.093 377.613 159.59 379.862 159.59C382.134 159.59 384.147 159.093 385.899 158.098C387.65 157.104 389.024 155.731 390.018 153.979C391.012 152.204 391.509 150.191 391.509 147.942V103.056ZM420.638 103.056H445.211L462.115 144.249H462.967L479.871 103.056H504.444V175.783H485.126V133.738H484.558L468.365 175.215H456.717L440.524 133.454H439.956V175.783H420.638V103.056Z"/>
</mask>
<path d="M42.557 125.783C42.3676 123.416 41.4798 121.569 39.8936 120.243C38.3311 118.918 35.9519 118.255 32.7558 118.255C30.7199 118.255 29.0508 118.503 27.7487 119C26.4703 119.474 25.5234 120.125 24.9078 120.954C24.2923 121.782 23.9727 122.729 23.949 123.794C23.9017 124.67 24.0556 125.464 24.4107 126.174C24.7895 126.86 25.3813 127.488 26.1862 128.056C26.9912 128.6 28.021 129.098 29.2757 129.547C30.5305 129.997 32.0219 130.4 33.7502 130.755L39.7161 132.033C43.7407 132.885 47.1853 134.01 50.0499 135.407C52.9145 136.803 55.2582 138.449 57.0811 140.343C58.9041 142.213 60.2416 144.32 61.0939 146.664C61.9699 149.008 62.4197 151.564 62.4434 154.334C62.4197 159.116 61.2241 163.165 58.8567 166.479C56.4893 169.794 53.1039 172.315 48.7005 174.043C44.3207 175.771 39.0532 176.635 32.8979 176.635C26.5769 176.635 21.0608 175.7 16.3496 173.83C11.6621 171.96 8.01627 169.083 5.4121 165.201C2.83161 161.294 1.52952 156.299 1.50585 150.215H20.2558C20.3742 152.44 20.9306 154.311 21.9249 155.826C22.9192 157.341 24.316 158.489 26.1152 159.27C27.9381 160.052 30.1043 160.442 32.6138 160.442C34.7208 160.442 36.4845 160.182 37.905 159.661C39.3255 159.14 40.4026 158.418 41.1365 157.495C41.8704 156.571 42.2492 155.518 42.2729 154.334C42.2492 153.222 41.8823 152.251 41.172 151.422C40.4855 150.57 39.3491 149.812 37.763 149.15C36.1768 148.463 34.0343 147.824 31.3354 147.232L24.0911 145.669C17.6517 144.273 12.5736 141.941 8.8567 138.674C5.16352 135.383 3.32877 130.897 3.35244 125.215C3.32877 120.598 4.55983 116.562 7.04562 113.106C9.55509 109.625 13.0234 106.915 17.4505 104.973C21.9012 103.032 27.003 102.062 32.7558 102.062C38.6271 102.062 43.7052 103.044 47.9902 105.009C52.2753 106.974 55.5778 109.744 57.8979 113.319C60.2416 116.87 61.4254 121.025 61.449 125.783H42.557ZM66.971 103.056H88.9881L103.193 132.601H103.761L117.965 103.056H139.982L113.278 152.914V175.783H93.6756V152.914L66.971 103.056ZM185.623 125.783C185.434 123.416 184.546 121.569 182.96 120.243C181.398 118.918 179.018 118.255 175.822 118.255C173.786 118.255 172.117 118.503 170.815 119C169.537 119.474 168.59 120.125 167.974 120.954C167.359 121.782 167.039 122.729 167.015 123.794C166.968 124.67 167.122 125.464 167.477 126.174C167.856 126.86 168.448 127.488 169.253 128.056C170.058 128.6 171.087 129.098 172.342 129.547C173.597 129.997 175.088 130.4 176.817 130.755L182.782 132.033C186.807 132.885 190.252 134.01 193.116 135.407C195.981 136.803 198.325 138.449 200.148 140.343C201.97 142.213 203.308 144.32 204.16 146.664C205.036 149.008 205.486 151.564 205.51 154.334C205.486 159.116 204.291 163.165 201.923 166.479C199.556 169.794 196.17 172.315 191.767 174.043C187.387 175.771 182.12 176.635 175.964 176.635C169.643 176.635 164.127 175.7 159.416 173.83C154.729 171.96 151.083 169.083 148.479 165.201C145.898 161.294 144.596 156.299 144.572 150.215H163.322C163.441 152.44 163.997 154.311 164.991 155.826C165.986 157.341 167.382 158.489 169.182 159.27C171.005 160.052 173.171 160.442 175.68 160.442C177.787 160.442 179.551 160.182 180.971 159.661C182.392 159.14 183.469 158.418 184.203 157.495C184.937 156.571 185.316 155.518 185.339 154.334C185.316 153.222 184.949 152.251 184.238 151.422C183.552 150.57 182.416 149.812 180.829 149.15C179.243 148.463 177.101 147.824 174.402 147.232L167.157 145.669C160.718 144.273 155.64 141.941 151.923 138.674C148.23 135.383 146.395 130.897 146.419 125.215C146.395 120.598 147.626 116.562 150.112 113.106C152.621 109.625 156.09 106.915 160.517 104.973C164.968 103.032 170.069 102.062 175.822 102.062C181.693 102.062 186.772 103.044 191.057 105.009C195.342 106.974 198.644 109.744 200.964 113.319C203.308 116.87 204.492 121.025 204.515 125.783H185.623ZM211.032 118.965V103.056H274.242V118.965H252.367V175.783H232.907V118.965H211.032ZM281.673 175.783V103.056H313.065C318.463 103.056 323.186 104.038 327.234 106.003C331.282 107.968 334.431 110.797 336.68 114.491C338.929 118.184 340.053 122.611 340.053 127.772C340.053 132.98 338.893 137.372 336.573 140.946C334.277 144.521 331.045 147.22 326.879 149.043C322.736 150.866 317.894 151.777 312.355 151.777H293.605V136.437H308.377C310.697 136.437 312.674 136.152 314.308 135.584C315.965 134.992 317.231 134.057 318.107 132.779C319.007 131.5 319.457 129.831 319.457 127.772C319.457 125.688 319.007 123.996 318.107 122.694C317.231 121.368 315.965 120.397 314.308 119.782C312.674 119.142 310.697 118.823 308.377 118.823H301.417V175.783H281.673ZM324.286 142.402L342.468 175.783H321.019L303.264 142.402H324.286ZM391.509 103.056H411.254V149.647C411.254 155.187 409.928 159.981 407.276 164.029C404.649 168.053 400.979 171.167 396.268 173.368C391.557 175.546 386.088 176.635 379.862 176.635C373.588 176.635 368.096 175.546 363.384 173.368C358.673 171.167 355.004 168.053 352.376 164.029C349.772 159.981 348.47 155.187 348.47 149.647V103.056H368.214V147.942C368.214 150.191 368.711 152.204 369.705 153.979C370.7 155.731 372.073 157.104 373.825 158.098C375.6 159.093 377.613 159.59 379.862 159.59C382.134 159.59 384.147 159.093 385.899 158.098C387.65 157.104 389.024 155.731 390.018 153.979C391.012 152.204 391.509 150.191 391.509 147.942V103.056ZM420.638 103.056H445.211L462.115 144.249H462.967L479.871 103.056H504.444V175.783H485.126V133.738H484.558L468.365 175.215H456.717L440.524 133.454H439.956V175.783H420.638V103.056Z" fill="white"/>
<path d="M42.557 125.783L41.0618 125.903L41.1722 127.283H42.557V125.783ZM39.8936 120.243L38.9231 121.387L38.9317 121.394L39.8936 120.243ZM27.7487 119L28.2697 120.407L28.2768 120.404L28.2838 120.402L27.7487 119ZM24.9078 120.954L23.7037 120.059L24.9078 120.954ZM23.949 123.794L25.4468 123.875L25.4481 123.852L25.4487 123.828L23.949 123.794ZM24.4107 126.174L23.069 126.845L23.0826 126.872L23.0973 126.898L24.4107 126.174ZM26.1862 128.056L25.3212 129.281L25.3334 129.29L25.3458 129.298L26.1862 128.056ZM33.7502 130.755L34.0645 129.288L34.0521 129.285L33.7502 130.755ZM39.7161 132.033L39.4018 133.5L39.4053 133.501L39.7161 132.033ZM50.0499 135.407L49.3925 136.755L50.0499 135.407ZM57.0811 140.343L56.0004 141.383L56.007 141.39L57.0811 140.343ZM61.0939 146.664L59.6842 147.176L59.6888 147.189L61.0939 146.664ZM62.4434 154.334L63.9433 154.342L63.9434 154.332L63.9433 154.321L62.4434 154.334ZM58.8567 166.479L60.0773 167.351L58.8567 166.479ZM48.7005 174.043L48.1524 172.647L48.1499 172.648L48.7005 174.043ZM16.3496 173.83L15.7937 175.223L15.7961 175.224L16.3496 173.83ZM5.4121 165.201L4.1605 166.028L4.16637 166.036L5.4121 165.201ZM1.50585 150.215V148.715H1.07288e-06L0.00586045 150.221L1.50585 150.215ZM20.2558 150.215L21.7537 150.135L21.6782 148.715H20.2558V150.215ZM21.9249 155.826L20.6708 156.649L21.9249 155.826ZM26.1152 159.27L25.5178 160.646L25.5243 160.649L26.1152 159.27ZM37.905 159.661L38.4214 161.069H38.4214L37.905 159.661ZM41.1365 157.495L42.3108 158.428L41.1365 157.495ZM42.2729 154.334L43.7726 154.364L43.7732 154.333L43.7726 154.302L42.2729 154.334ZM41.172 151.422L40.0039 152.363L40.0183 152.381L40.0332 152.399L41.172 151.422ZM37.763 149.15L37.1671 150.526L37.1758 150.53L37.1846 150.534L37.763 149.15ZM31.3354 147.232L31.6567 145.767L31.6517 145.766L31.3354 147.232ZM24.0911 145.669L23.7731 147.135L23.7748 147.136L24.0911 145.669ZM8.8567 138.674L7.8588 139.794L7.86641 139.8L8.8567 138.674ZM3.35244 125.215L4.85249 125.221L4.85242 125.207L3.35244 125.215ZM7.04562 113.106L5.82895 112.228L5.82785 112.23L7.04562 113.106ZM17.4505 104.973L16.8508 103.599L16.8481 103.6L17.4505 104.973ZM47.9902 105.009L47.365 106.372L47.9902 105.009ZM57.8979 113.319L56.6396 114.135L56.646 114.145L57.8979 113.319ZM61.449 125.783V127.283H62.9565L62.949 125.776L61.449 125.783ZM42.557 125.783L44.0522 125.664C43.8359 122.96 42.7974 120.715 40.8556 119.092L39.8936 120.243L38.9317 121.394C40.1622 122.423 40.8993 123.872 41.0618 125.903L42.557 125.783ZM39.8936 120.243L40.8641 119.1C38.9148 117.446 36.1183 116.755 32.7558 116.755V118.255V119.755C35.7854 119.755 37.7475 120.39 38.9232 121.387L39.8936 120.243ZM32.7558 118.255V116.755C30.6137 116.755 28.7461 117.014 27.2137 117.599L27.7487 119L28.2838 120.402C29.3556 119.993 30.826 119.755 32.7558 119.755V118.255ZM27.7487 119L27.2278 117.594C25.7626 118.136 24.54 118.933 23.7037 120.059L24.9078 120.954L26.112 121.848C26.5067 121.317 27.1781 120.811 28.2697 120.407L27.7487 119ZM24.9078 120.954L23.7037 120.059C22.8966 121.146 22.4797 122.396 22.4494 123.761L23.949 123.794L25.4487 123.828C25.4657 123.062 25.6881 122.419 26.112 121.848L24.9078 120.954ZM23.949 123.794L22.4512 123.714C22.3913 124.821 22.5856 125.878 23.069 126.845L24.4107 126.174L25.7523 125.503C25.5255 125.049 25.412 124.519 25.4468 123.875L23.949 123.794ZM24.4107 126.174L23.0973 126.898C23.6102 127.828 24.3772 128.615 25.3212 129.281L26.1862 128.056L27.0513 126.83C26.3855 126.36 25.9688 125.893 25.724 125.449L24.4107 126.174ZM26.1862 128.056L25.3458 129.298C26.285 129.934 27.4371 130.482 28.7695 130.959L29.2757 129.547L29.7819 128.135C28.6049 127.713 27.6974 127.267 27.0267 126.813L26.1862 128.056ZM29.2757 129.547L28.7695 130.959C30.1083 131.439 31.6714 131.859 33.4483 132.224L33.7502 130.755L34.0521 129.285C32.3725 128.94 30.9527 128.555 29.7819 128.135L29.2757 129.547ZM33.7502 130.755L33.4359 132.221L39.4018 133.5L39.7161 132.033L40.0304 130.566L34.0645 129.288L33.7502 130.755ZM39.7161 132.033L39.4053 133.501C43.3427 134.334 46.6646 135.425 49.3925 136.755L50.0499 135.407L50.7073 134.058C47.706 132.595 44.1387 131.436 40.0268 130.566L39.7161 132.033ZM50.0499 135.407L49.3925 136.755C52.1315 138.091 54.3223 139.639 56.0004 141.383L57.0811 140.343L58.1619 139.303C56.1942 137.258 53.6974 135.516 50.7073 134.058L50.0499 135.407ZM57.0811 140.343L56.007 141.39C57.6886 143.115 58.9081 145.042 59.6842 147.176L61.0939 146.664L62.5036 146.151C61.5752 143.598 60.1195 141.311 58.1553 139.296L57.0811 140.343ZM61.0939 146.664L59.6888 147.189C60.4973 149.352 60.9211 151.734 60.9434 154.347L62.4434 154.334L63.9433 154.321C63.9183 151.395 63.4424 148.663 62.499 146.139L61.0939 146.664ZM62.4434 154.334L60.9434 154.327C60.921 158.854 59.7935 162.587 57.6361 165.607L58.8567 166.479L60.0773 167.351C62.6548 163.743 63.9184 159.378 63.9433 154.342L62.4434 154.334ZM58.8567 166.479L57.6361 165.607C55.4632 168.649 52.3302 171.007 48.1524 172.647L48.7005 174.043L49.2485 175.439C53.8775 173.623 57.5153 170.938 60.0773 167.351L58.8567 166.479ZM48.7005 174.043L48.1499 172.648C43.9902 174.289 38.9197 175.135 32.8979 175.135V176.635V178.135C39.1867 178.135 44.6512 177.253 49.251 175.438L48.7005 174.043ZM32.8979 176.635V175.135C26.7212 175.135 21.4005 174.221 16.9031 172.436L16.3496 173.83L15.7961 175.224C20.7211 177.179 26.4325 178.135 32.8979 178.135V176.635ZM16.3496 173.83L16.9055 172.437C12.4754 170.669 9.07998 167.976 6.65783 164.365L5.4121 165.201L4.16637 166.036C6.95255 170.19 10.8488 173.25 15.7937 175.223L16.3496 173.83ZM5.4121 165.201L6.66366 164.374C4.2859 160.775 3.02871 156.088 3.00584 150.209L1.50585 150.215L0.00586045 150.221C0.0303348 156.511 1.37732 161.814 4.16053 166.028L5.4121 165.201ZM1.50585 150.215V151.715H20.2558V150.215V148.715H1.50585V150.215ZM20.2558 150.215L18.758 150.295C18.8872 152.724 19.5009 154.866 20.6708 156.649L21.9249 155.826L23.179 155.003C22.3602 153.755 21.8612 152.156 21.7537 150.135L20.2558 150.215ZM21.9249 155.826L20.6708 156.649C21.8387 158.428 23.4735 159.759 25.5178 160.646L26.1152 159.27L26.7127 157.894C25.1584 157.22 23.9997 156.253 23.179 155.003L21.9249 155.826ZM26.1152 159.27L25.5243 160.649C27.5764 161.529 29.9531 161.942 32.6138 161.942V160.442V158.942C30.2555 158.942 28.2998 158.575 26.7061 157.892L26.1152 159.27ZM32.6138 160.442V161.942C34.833 161.942 36.7845 161.669 38.4214 161.069L37.905 159.661L37.3886 158.253C36.1846 158.694 34.6087 158.942 32.6138 158.942V160.442ZM37.905 159.661L38.4214 161.069C40.0286 160.48 41.3632 159.62 42.3108 158.428L41.1365 157.495L39.9623 156.561C39.4421 157.216 38.6223 157.8 37.3886 158.253L37.905 159.661ZM41.1365 157.495L42.3108 158.428C43.2501 157.246 43.7424 155.875 43.7726 154.364L42.2729 154.334L40.7732 154.304C40.7561 155.161 40.4908 155.897 39.9623 156.561L41.1365 157.495ZM42.2729 154.334L43.7726 154.302C43.7417 152.85 43.2519 151.544 42.3109 150.446L41.172 151.422L40.0332 152.399C40.5127 152.958 40.7568 153.593 40.7732 154.366L42.2729 154.334ZM41.172 151.422L42.3402 150.481C41.4323 149.354 40.039 148.475 38.3413 147.766L37.763 149.15L37.1846 150.534C38.6593 151.15 39.5387 151.786 40.0039 152.363L41.172 151.422ZM37.763 149.15L38.3588 147.773C36.6479 147.032 34.401 146.369 31.6567 145.767L31.3354 147.232L31.0141 148.697C33.6675 149.279 35.7057 149.894 37.1671 150.526L37.763 149.15ZM31.3354 147.232L31.6517 145.766L24.4073 144.203L24.0911 145.669L23.7748 147.136L31.0191 148.698L31.3354 147.232ZM24.0911 145.669L24.409 144.204C18.1393 142.844 13.3191 140.599 9.847 137.547L8.8567 138.674L7.86641 139.8C11.828 143.283 17.1641 145.702 23.7731 147.135L24.0911 145.669ZM8.8567 138.674L9.85458 137.554C6.53176 134.593 4.83025 130.544 4.85243 125.221L3.35244 125.215L1.85245 125.209C1.82728 131.25 3.79528 136.173 7.85882 139.794L8.8567 138.674ZM3.35244 125.215L4.85242 125.207C4.83023 120.879 5.97846 117.159 8.2634 113.981L7.04562 113.106L5.82785 112.23C3.14119 115.965 1.8273 120.317 1.85246 125.223L3.35244 125.215ZM7.04562 113.106L8.2623 113.983C10.5959 110.747 13.8394 108.195 18.0528 106.347L17.4505 104.973L16.8481 103.6C12.2073 105.635 8.51428 108.504 5.82895 112.228L7.04562 113.106ZM17.4505 104.973L18.0501 106.348C22.2801 104.503 27.1718 103.562 32.7558 103.562V102.062V100.562C26.8342 100.562 21.5223 101.561 16.8508 103.599L17.4505 104.973ZM32.7558 102.062V103.562C38.4628 103.562 43.3181 104.517 47.365 106.372L47.9902 105.009L48.6155 103.645C44.0923 101.571 38.7914 100.562 32.7558 100.562V102.062ZM47.9902 105.009L47.365 106.372C51.4198 108.232 54.4906 110.824 56.6397 114.135L57.8979 113.319L59.1561 112.502C56.665 108.664 53.1307 105.716 48.6155 103.645L47.9902 105.009ZM57.8979 113.319L56.646 114.145C58.8107 117.425 59.9266 121.288 59.9491 125.791L61.449 125.783L62.949 125.776C62.9241 120.762 61.6726 116.315 59.1498 112.492L57.8979 113.319ZM61.449 125.783V124.283H42.557V125.783V127.283H61.449V125.783ZM66.971 103.056V101.556H64.466L65.6488 103.764L66.971 103.056ZM88.9881 103.056L90.34 102.406L89.9313 101.556H88.9881V103.056ZM103.193 132.601L101.841 133.251L102.249 134.101H103.193V132.601ZM103.761 132.601V134.101H104.704L105.113 133.251L103.761 132.601ZM117.965 103.056V101.556H117.022L116.613 102.406L117.965 103.056ZM139.982 103.056L141.305 103.764L142.487 101.556H139.982V103.056ZM113.278 152.914L111.956 152.206L111.778 152.537V152.914H113.278ZM113.278 175.783V177.283H114.778V175.783H113.278ZM93.6756 175.783H92.1756V177.283H93.6756V175.783ZM93.6756 152.914H95.1756V152.537L94.9979 152.206L93.6756 152.914ZM66.971 103.056V104.556H88.9881V103.056V101.556H66.971V103.056ZM88.9881 103.056L87.6362 103.706L101.841 133.251L103.193 132.601L104.545 131.951L90.34 102.406L88.9881 103.056ZM103.193 132.601V134.101H103.761V132.601V131.101H103.193V132.601ZM103.761 132.601L105.113 133.251L119.317 103.706L117.965 103.056L116.613 102.406L102.409 131.951L103.761 132.601ZM117.965 103.056V104.556H139.982V103.056V101.556H117.965V103.056ZM139.982 103.056L138.66 102.348L111.956 152.206L113.278 152.914L114.6 153.622L141.305 103.764L139.982 103.056ZM113.278 152.914H111.778V175.783H113.278H114.778V152.914H113.278ZM113.278 175.783V174.283H93.6756V175.783V177.283H113.278V175.783ZM93.6756 175.783H95.1756V152.914H93.6756H92.1756V175.783H93.6756ZM93.6756 152.914L94.9979 152.206L68.2933 102.348L66.971 103.056L65.6488 103.764L92.3533 153.622L93.6756 152.914ZM185.623 125.783L184.128 125.903L184.239 127.283H185.623V125.783ZM182.96 120.243L181.99 121.387L181.998 121.394L182.96 120.243ZM170.815 119L171.336 120.407L171.343 120.404L171.35 120.402L170.815 119ZM167.974 120.954L166.77 120.059L167.974 120.954ZM167.015 123.794L168.513 123.875L168.515 123.852L168.515 123.828L167.015 123.794ZM167.477 126.174L166.135 126.845L166.149 126.872L166.164 126.898L167.477 126.174ZM169.253 128.056L168.388 129.281L168.4 129.29L168.412 129.298L169.253 128.056ZM176.817 130.755L177.131 129.288L177.118 129.285L176.817 130.755ZM182.782 132.033L182.468 133.5L182.472 133.501L182.782 132.033ZM193.116 135.407L192.459 136.755L193.116 135.407ZM200.148 140.343L199.067 141.383L199.073 141.39L200.148 140.343ZM204.16 146.664L202.751 147.176L202.755 147.189L204.16 146.664ZM205.51 154.334L207.01 154.342L207.01 154.332L207.01 154.321L205.51 154.334ZM201.923 166.479L203.144 167.351L201.923 166.479ZM191.767 174.043L191.219 172.647L191.216 172.648L191.767 174.043ZM159.416 173.83L158.86 175.223L158.863 175.224L159.416 173.83ZM148.479 165.201L147.227 166.028L147.233 166.036L148.479 165.201ZM144.572 150.215V148.715H143.066L143.072 150.221L144.572 150.215ZM163.322 150.215L164.82 150.135L164.745 148.715H163.322V150.215ZM164.991 155.826L163.737 156.649L164.991 155.826ZM169.182 159.27L168.584 160.646L168.591 160.649L169.182 159.27ZM180.971 159.661L181.488 161.069L180.971 159.661ZM184.203 157.495L185.377 158.428L184.203 157.495ZM185.339 154.334L186.839 154.364L186.84 154.333L186.839 154.302L185.339 154.334ZM184.238 151.422L183.07 152.363L183.085 152.381L183.1 152.399L184.238 151.422ZM180.829 149.15L180.234 150.526L180.242 150.53L180.251 150.534L180.829 149.15ZM174.402 147.232L174.723 145.767L174.718 145.766L174.402 147.232ZM167.157 145.669L166.84 147.135L166.841 147.136L167.157 145.669ZM151.923 138.674L150.925 139.794L150.933 139.8L151.923 138.674ZM146.419 125.215L147.919 125.221L147.919 125.207L146.419 125.215ZM150.112 113.106L148.895 112.228L148.894 112.23L150.112 113.106ZM160.517 104.973L159.917 103.599L159.914 103.6L160.517 104.973ZM191.057 105.009L190.431 106.372L191.057 105.009ZM200.964 113.319L199.706 114.135L199.712 114.145L200.964 113.319ZM204.515 125.783V127.283H206.023L206.015 125.776L204.515 125.783ZM185.623 125.783L187.119 125.664C186.902 122.96 185.864 120.715 183.922 119.092L182.96 120.243L181.998 121.394C183.229 122.423 183.966 123.872 184.128 125.903L185.623 125.783ZM182.96 120.243L183.931 119.1C181.981 117.446 179.185 116.755 175.822 116.755V118.255V119.755C178.852 119.755 180.814 120.39 181.99 121.387L182.96 120.243ZM175.822 118.255V116.755C173.68 116.755 171.812 117.014 170.28 117.599L170.815 119L171.35 120.402C172.422 119.993 173.892 119.755 175.822 119.755V118.255ZM170.815 119L170.294 117.594C168.829 118.136 167.606 118.933 166.77 120.059L167.974 120.954L169.178 121.848C169.573 121.317 170.244 120.811 171.336 120.407L170.815 119ZM167.974 120.954L166.77 120.059C165.963 121.146 165.546 122.396 165.516 123.761L167.015 123.794L168.515 123.828C168.532 123.062 168.754 122.419 169.178 121.848L167.974 120.954ZM167.015 123.794L165.518 123.714C165.458 124.821 165.652 125.878 166.135 126.845L167.477 126.174L168.819 125.503C168.592 125.049 168.478 124.519 168.513 123.875L167.015 123.794ZM167.477 126.174L166.164 126.898C166.677 127.828 167.444 128.615 168.388 129.281L169.253 128.056L170.118 126.83C169.452 126.36 169.035 125.893 168.79 125.449L167.477 126.174ZM169.253 128.056L168.412 129.298C169.351 129.934 170.504 130.482 171.836 130.959L172.342 129.547L172.848 128.135C171.671 127.713 170.764 127.267 170.093 126.813L169.253 128.056ZM172.342 129.547L171.836 130.959C173.175 131.439 174.738 131.859 176.515 132.224L176.817 130.755L177.118 129.285C175.439 128.94 174.019 128.555 172.848 128.135L172.342 129.547ZM176.817 130.755L176.502 132.221L182.468 133.5L182.782 132.033L183.097 130.566L177.131 129.288L176.817 130.755ZM182.782 132.033L182.472 133.501C186.409 134.334 189.731 135.425 192.459 136.755L193.116 135.407L193.774 134.058C190.772 132.595 187.205 131.436 183.093 130.566L182.782 132.033ZM193.116 135.407L192.459 136.755C195.198 138.091 197.389 139.639 199.067 141.383L200.148 140.343L201.228 139.303C199.261 137.258 196.764 135.516 193.774 134.058L193.116 135.407ZM200.148 140.343L199.073 141.39C200.755 143.115 201.974 145.042 202.751 147.176L204.16 146.664L205.57 146.151C204.642 143.598 203.186 141.311 201.222 139.296L200.148 140.343ZM204.16 146.664L202.755 147.189C203.564 149.352 203.987 151.734 204.01 154.347L205.51 154.334L207.01 154.321C206.985 151.395 206.509 148.663 205.565 146.139L204.16 146.664ZM205.51 154.334L204.01 154.327C203.987 158.854 202.86 162.587 200.703 165.607L201.923 166.479L203.144 167.351C205.721 163.743 206.985 159.378 207.01 154.342L205.51 154.334ZM201.923 166.479L200.703 165.607C198.53 168.649 195.397 171.007 191.219 172.647L191.767 174.043L192.315 175.439C196.944 173.623 200.582 170.938 203.144 167.351L201.923 166.479ZM191.767 174.043L191.216 172.648C187.057 174.289 181.986 175.135 175.964 175.135V176.635V178.135C182.253 178.135 187.718 177.253 192.317 175.438L191.767 174.043ZM175.964 176.635V175.135C169.788 175.135 164.467 174.221 159.969 172.436L159.416 173.83L158.863 175.224C163.787 177.179 169.499 178.135 175.964 178.135V176.635ZM159.416 173.83L159.972 172.437C155.542 170.669 152.146 167.976 149.724 164.365L148.479 165.201L147.233 166.036C150.019 170.19 153.915 173.25 158.86 175.223L159.416 173.83ZM148.479 165.201L149.73 164.374C147.352 160.775 146.095 156.088 146.072 150.209L144.572 150.215L143.072 150.221C143.097 156.511 144.444 161.814 147.227 166.028L148.479 165.201ZM144.572 150.215V151.715H163.322V150.215V148.715H144.572V150.215ZM163.322 150.215L161.824 150.295C161.954 152.724 162.567 154.866 163.737 156.649L164.991 155.826L166.245 155.003C165.427 153.755 164.928 152.156 164.82 150.135L163.322 150.215ZM164.991 155.826L163.737 156.649C164.905 158.428 166.54 159.759 168.584 160.646L169.182 159.27L169.779 157.894C168.225 157.22 167.066 156.253 166.245 155.003L164.991 155.826ZM169.182 159.27L168.591 160.649C170.643 161.529 173.02 161.942 175.68 161.942V160.442V158.942C173.322 158.942 171.366 158.575 169.773 157.892L169.182 159.27ZM175.68 160.442V161.942C177.899 161.942 179.851 161.669 181.488 161.069L180.971 159.661L180.455 158.253C179.251 158.694 177.675 158.942 175.68 158.942V160.442ZM180.971 159.661L181.488 161.069C183.095 160.48 184.43 159.62 185.377 158.428L184.203 157.495L183.029 156.561C182.508 157.216 181.689 157.8 180.455 158.253L180.971 159.661ZM184.203 157.495L185.377 158.428C186.316 157.246 186.809 155.875 186.839 154.364L185.339 154.334L183.84 154.304C183.822 155.161 183.557 155.897 183.029 156.561L184.203 157.495ZM185.339 154.334L186.839 154.302C186.808 152.85 186.318 151.544 185.377 150.446L184.238 151.422L183.1 152.399C183.579 152.958 183.823 153.593 183.84 154.366L185.339 154.334ZM184.238 151.422L185.407 150.481C184.499 149.354 183.105 148.475 181.408 147.766L180.829 149.15L180.251 150.534C181.726 151.15 182.605 151.786 183.07 152.363L184.238 151.422ZM180.829 149.15L181.425 147.773C179.714 147.032 177.467 146.369 174.723 145.767L174.402 147.232L174.08 148.697C176.734 149.279 178.772 149.894 180.234 150.526L180.829 149.15ZM174.402 147.232L174.718 145.766L167.474 144.203L167.157 145.669L166.841 147.136L174.086 148.698L174.402 147.232ZM167.157 145.669L167.475 144.204C161.206 142.844 156.386 140.599 152.913 137.547L151.923 138.674L150.933 139.8C154.894 143.283 160.23 145.702 166.84 147.135L167.157 145.669ZM151.923 138.674L152.921 137.554C149.598 134.593 147.897 130.544 147.919 125.221L146.419 125.215L144.919 125.209C144.894 131.25 146.862 136.173 150.925 139.794L151.923 138.674ZM146.419 125.215L147.919 125.207C147.897 120.879 149.045 117.159 151.33 113.981L150.112 113.106L148.894 112.23C146.208 115.965 144.894 120.317 144.919 125.223L146.419 125.215ZM150.112 113.106L151.329 113.983C153.662 110.747 156.906 108.195 161.119 106.347L160.517 104.973L159.914 103.6C155.274 105.635 151.581 108.504 148.895 112.228L150.112 113.106ZM160.517 104.973L161.117 106.348C165.347 104.503 170.238 103.562 175.822 103.562V102.062V100.562C169.901 100.562 164.589 101.561 159.917 103.599L160.517 104.973ZM175.822 102.062V103.562C181.529 103.562 186.384 104.517 190.431 106.372L191.057 105.009L191.682 103.645C187.159 101.571 181.858 100.562 175.822 100.562V102.062ZM191.057 105.009L190.431 106.372C194.486 108.232 197.557 110.824 199.706 114.135L200.964 113.319L202.223 112.502C199.731 108.664 196.197 105.716 191.682 103.645L191.057 105.009ZM200.964 113.319L199.712 114.145C201.877 117.425 202.993 121.288 203.015 125.791L204.515 125.783L206.015 125.776C205.99 120.762 204.739 116.315 202.216 112.492L200.964 113.319ZM204.515 125.783V124.283H185.623V125.783V127.283H204.515V125.783ZM211.032 118.965H209.532V120.465H211.032V118.965ZM211.032 103.056V101.556H209.532V103.056H211.032ZM274.242 103.056H275.742V101.556H274.242V103.056ZM274.242 118.965V120.465H275.742V118.965H274.242ZM252.367 118.965V117.465H250.867V118.965H252.367ZM252.367 175.783V177.283H253.867V175.783H252.367ZM232.907 175.783H231.407V177.283H232.907V175.783ZM232.907 118.965H234.407V117.465H232.907V118.965ZM211.032 118.965H212.532V103.056H211.032H209.532V118.965H211.032ZM211.032 103.056V104.556H274.242V103.056V101.556H211.032V103.056ZM274.242 103.056H272.742V118.965H274.242H275.742V103.056H274.242ZM274.242 118.965V117.465H252.367V118.965V120.465H274.242V118.965ZM252.367 118.965H250.867V175.783H252.367H253.867V118.965H252.367ZM252.367 175.783V174.283H232.907V175.783V177.283H252.367V175.783ZM232.907 175.783H234.407V118.965H232.907H231.407V175.783H232.907ZM232.907 118.965V117.465H211.032V118.965V120.465H232.907V118.965ZM281.673 175.783H280.173V177.283H281.673V175.783ZM281.673 103.056V101.556H280.173V103.056H281.673ZM327.234 106.003L326.579 107.353L327.234 106.003ZM336.68 114.491L337.961 113.71L336.68 114.491ZM336.573 140.946L335.315 140.13L335.311 140.136L336.573 140.946ZM326.879 149.043L326.277 147.669L326.275 147.67L326.879 149.043ZM293.605 151.777H292.105V153.277H293.605V151.777ZM293.605 136.437V134.937H292.105V136.437H293.605ZM314.308 135.584L314.8 137.001L314.812 136.997L314.308 135.584ZM318.107 132.779L316.881 131.916L316.875 131.923L316.87 131.931L318.107 132.779ZM318.107 122.694L316.856 123.521L316.864 123.533L316.873 123.546L318.107 122.694ZM314.308 119.782L313.761 121.179L313.773 121.183L313.785 121.188L314.308 119.782ZM301.417 118.823V117.323H299.917V118.823H301.417ZM301.417 175.783V177.283H302.917V175.783H301.417ZM324.286 142.402L325.604 141.685L325.177 140.902H324.286V142.402ZM342.468 175.783V177.283H344.993L343.785 175.066L342.468 175.783ZM321.019 175.783L319.695 176.488L320.118 177.283H321.019V175.783ZM303.264 142.402V140.902H300.767L301.939 143.107L303.264 142.402ZM281.673 175.783H283.173V103.056H281.673H280.173V175.783H281.673ZM281.673 103.056V104.556H313.065V103.056V101.556H281.673V103.056ZM313.065 103.056V104.556C318.28 104.556 322.771 105.505 326.579 107.353L327.234 106.003L327.889 104.654C323.6 102.572 318.645 101.556 313.065 101.556V103.056ZM327.234 106.003L326.579 107.353C330.379 109.197 333.306 111.834 335.399 115.271L336.68 114.491L337.961 113.71C335.556 109.761 332.185 106.739 327.889 104.654L327.234 106.003ZM336.68 114.491L335.399 115.271C337.479 118.687 338.553 122.832 338.553 127.772H340.053H341.553C341.553 122.389 340.379 117.681 337.961 113.71L336.68 114.491ZM340.053 127.772H338.553C338.553 132.755 337.445 136.847 335.315 140.13L336.573 140.946L337.832 141.763C340.341 137.896 341.553 133.205 341.553 127.772H340.053ZM336.573 140.946L335.311 140.136C333.186 143.444 330.193 145.956 326.277 147.669L326.879 149.043L327.48 150.417C331.898 148.485 335.368 145.599 337.835 141.757L336.573 140.946ZM326.879 149.043L326.275 147.67C322.36 149.393 317.732 150.277 312.355 150.277V151.777V153.277C318.057 153.277 323.112 152.339 327.483 150.416L326.879 149.043ZM312.355 151.777V150.277H293.605V151.777V153.277H312.355V151.777ZM293.605 151.777H295.105V136.437H293.605H292.105V151.777H293.605ZM293.605 136.437V137.937H308.377V136.437V134.937H293.605V136.437ZM308.377 136.437V137.937C310.812 137.937 312.965 137.64 314.8 137.001L314.308 135.584L313.815 134.168C312.384 134.665 310.583 134.937 308.377 134.937V136.437ZM314.308 135.584L314.812 136.997C316.725 136.314 318.267 135.2 319.345 133.627L318.107 132.779L316.87 131.931C316.196 132.914 315.205 133.671 313.803 134.172L314.308 135.584ZM318.107 132.779L319.334 133.642C320.46 132.042 320.957 130.043 320.957 127.772H319.457H317.957C317.957 129.62 317.554 130.959 316.881 131.916L318.107 132.779ZM319.457 127.772H320.957C320.957 125.479 320.462 123.462 319.342 121.841L318.107 122.694L316.873 123.546C317.553 124.529 317.957 125.898 317.957 127.772H319.457ZM318.107 122.694L319.359 121.867C318.288 120.246 316.75 119.089 314.83 118.376L314.308 119.782L313.785 121.188C315.179 121.706 316.175 122.49 316.856 123.521L318.107 122.694ZM314.308 119.782L314.854 118.385C313 117.659 310.827 117.323 308.377 117.323V118.823V120.323C310.567 120.323 312.348 120.626 313.761 121.179L314.308 119.782ZM308.377 118.823V117.323H301.417V118.823V120.323H308.377V118.823ZM301.417 118.823H299.917V175.783H301.417H302.917V118.823H301.417ZM301.417 175.783V174.283H281.673V175.783V177.283H301.417V175.783ZM324.286 142.402L322.969 143.12L341.151 176.501L342.468 175.783L343.785 175.066L325.604 141.685L324.286 142.402ZM342.468 175.783V174.283H321.019V175.783V177.283H342.468V175.783ZM321.019 175.783L322.344 175.079L304.588 141.698L303.264 142.402L301.939 143.107L319.695 176.488L321.019 175.783ZM303.264 142.402V143.902H324.286V142.402V140.902H303.264V142.402ZM391.509 103.056V101.556H390.009V103.056H391.509ZM411.254 103.056H412.754V101.556H411.254V103.056ZM407.276 164.029L406.022 163.207L406.02 163.209L407.276 164.029ZM396.268 173.368L396.897 174.73L396.903 174.727L396.268 173.368ZM363.384 173.368L362.749 174.727L362.755 174.73L363.384 173.368ZM352.376 164.029L351.114 164.84L351.12 164.849L352.376 164.029ZM348.47 103.056V101.556H346.97V103.056H348.47ZM368.214 103.056H369.714V101.556H368.214V103.056ZM369.705 153.979L368.397 154.712L368.401 154.72L369.705 153.979ZM373.825 158.098L373.084 159.403L373.092 159.407L373.825 158.098ZM385.899 158.098L386.639 159.403L385.899 158.098ZM390.018 153.979L391.322 154.72L391.327 154.712L390.018 153.979ZM391.509 103.056V104.556H411.254V103.056V101.556H391.509V103.056ZM411.254 103.056H409.754V149.647H411.254H412.754V103.056H411.254ZM411.254 149.647H409.754C409.754 154.938 408.491 159.437 406.022 163.207L407.276 164.029L408.531 164.851C411.365 160.524 412.754 155.435 412.754 149.647H411.254ZM407.276 164.029L406.02 163.209C403.558 166.98 400.112 169.916 395.633 172.009L396.268 173.368L396.903 174.727C401.846 172.417 405.739 169.127 408.532 164.849L407.276 164.029ZM396.268 173.368L395.638 172.007C391.16 174.077 385.913 175.135 379.862 175.135V176.635V178.135C386.263 178.135 391.953 177.016 396.897 174.73L396.268 173.368ZM379.862 176.635V175.135C373.761 175.135 368.491 174.077 364.014 172.007L363.384 173.368L362.755 174.73C367.7 177.016 373.415 178.135 379.862 178.135V176.635ZM363.384 173.368L364.019 172.009C359.54 169.916 356.094 166.98 353.632 163.209L352.376 164.029L351.12 164.849C353.913 169.127 357.807 172.417 362.749 174.727L363.384 173.368ZM352.376 164.029L353.637 163.217C351.211 159.446 349.97 154.943 349.97 149.647H348.47H346.97C346.97 155.43 348.332 160.515 351.114 164.84L352.376 164.029ZM348.47 149.647H349.97V103.056H348.47H346.97V149.647H348.47ZM348.47 103.056V104.556H368.214V103.056V101.556H348.47V103.056ZM368.214 103.056H366.714V147.942H368.214H369.714V103.056H368.214ZM368.214 147.942H366.714C366.714 150.42 367.264 152.69 368.397 154.712L369.705 153.979L371.014 153.246C370.158 151.718 369.714 149.962 369.714 147.942H368.214ZM369.705 153.979L368.401 154.72C369.529 156.707 371.097 158.275 373.084 159.403L373.825 158.098L374.565 156.794C373.049 155.933 371.871 154.755 371.01 153.239L369.705 153.979ZM373.825 158.098L373.092 159.407C375.114 160.54 377.384 161.09 379.862 161.09V159.59V158.09C377.842 158.09 376.086 157.646 374.558 156.79L373.825 158.098ZM379.862 159.59V161.09C382.36 161.09 384.634 160.541 386.639 159.403L385.899 158.098L385.158 156.794C383.66 157.644 381.909 158.09 379.862 158.09V159.59ZM385.899 158.098L386.639 159.403C388.626 158.275 390.194 156.707 391.322 154.72L390.018 153.979L388.713 153.239C387.853 154.755 386.675 155.933 385.158 156.794L385.899 158.098ZM390.018 153.979L391.327 154.712C392.459 152.69 393.009 150.42 393.009 147.942H391.509H390.009C390.009 149.962 389.565 151.718 388.709 153.246L390.018 153.979ZM391.509 147.942H393.009V103.056H391.509H390.009V147.942H391.509ZM420.638 103.056V101.556H419.138V103.056H420.638ZM445.211 103.056L446.599 102.486L446.217 101.556H445.211V103.056ZM462.115 144.249L460.727 144.818L461.109 145.749H462.115V144.249ZM462.967 144.249V145.749H463.973L464.355 144.818L462.967 144.249ZM479.871 103.056V101.556H478.865L478.483 102.486L479.871 103.056ZM504.444 103.056H505.944V101.556H504.444V103.056ZM504.444 175.783V177.283H505.944V175.783H504.444ZM485.126 175.783H483.626V177.283H485.126V175.783ZM485.126 133.738H486.626V132.238H485.126V133.738ZM484.558 133.738V132.238H483.533L483.161 133.192L484.558 133.738ZM468.365 175.215V176.715H469.39L469.762 175.76L468.365 175.215ZM456.717 175.215L455.319 175.757L455.69 176.715H456.717V175.215ZM440.524 133.454L441.923 132.911L441.551 131.954H440.524V133.454ZM439.956 133.454V131.954H438.456V133.454H439.956ZM439.956 175.783V177.283H441.456V175.783H439.956ZM420.638 175.783H419.138V177.283H420.638V175.783ZM420.638 103.056V104.556H445.211V103.056V101.556H420.638V103.056ZM445.211 103.056L443.824 103.625L460.727 144.818L462.115 144.249L463.503 143.68L446.599 102.486L445.211 103.056ZM462.115 144.249V145.749H462.967V144.249V142.749H462.115V144.249ZM462.967 144.249L464.355 144.818L481.258 103.625L479.871 103.056L478.483 102.486L461.579 143.68L462.967 144.249ZM479.871 103.056V104.556H504.444V103.056V101.556H479.871V103.056ZM504.444 103.056H502.944V175.783H504.444H505.944V103.056H504.444ZM504.444 175.783V174.283H485.126V175.783V177.283H504.444V175.783ZM485.126 175.783H486.626V133.738H485.126H483.626V175.783H485.126ZM485.126 133.738V132.238H484.558V133.738V135.238H485.126V133.738ZM484.558 133.738L483.161 133.192L466.968 174.669L468.365 175.215L469.762 175.76L485.955 134.283L484.558 133.738ZM468.365 175.215V173.715H456.717V175.215V176.715H468.365V175.215ZM456.717 175.215L458.116 174.673L441.923 132.911L440.524 133.454L439.125 133.996L455.319 175.757L456.717 175.215ZM440.524 133.454V131.954H439.956V133.454V134.954H440.524V133.454ZM439.956 133.454H438.456V175.783H439.956H441.456V133.454H439.956ZM439.956 175.783V174.283H420.638V175.783V177.283H439.956V175.783ZM420.638 175.783H422.138V103.056H420.638H419.138V175.783H420.638Z" fill="#08F14E" mask="url(#path-1-outside-1_0_1)"/>
<path d="M478.259 73.925V40.6607L514.766 35.5431V68.8074" stroke="#08F14E" stroke-width="5" stroke-linecap="round" stroke-linejoin="round"/>
<path d="M469.132 81.6014C474.173 81.6014 478.259 78.1645 478.259 73.925C478.259 69.6854 474.173 66.2486 469.132 66.2486C464.092 66.2486 460.006 69.6854 460.006 73.925C460.006 78.1645 464.092 81.6014 469.132 81.6014Z" stroke="#08F14E" stroke-width="5" stroke-linecap="round" stroke-linejoin="round"/>
<path d="M505.639 76.4838C510.68 76.4838 514.766 73.0469 514.766 68.8074C514.766 64.5679 510.68 61.131 505.639 61.131C500.599 61.131 496.513 64.5679 496.513 68.8074C496.513 73.0469 500.599 76.4838 505.639 76.4838Z" stroke="#08F14E" stroke-width="5" stroke-linecap="round" stroke-linejoin="round"/>
<path d="M580.644 51.3592V9.01457L624.457 2.50002V44.8446" stroke="#08F14E" stroke-width="5" stroke-linecap="round" stroke-linejoin="round"/>
<path d="M569.691 61.131C575.74 61.131 580.644 56.756 580.644 51.3592C580.644 45.9624 575.74 41.5874 569.691 41.5874C563.642 41.5874 558.738 45.9624 558.738 51.3592C558.738 56.756 563.642 61.131 569.691 61.131Z" stroke="#08F14E" stroke-width="5" stroke-linecap="round" stroke-linejoin="round"/>
<path d="M613.504 54.6165C619.553 54.6165 624.457 50.2415 624.457 44.8446C624.457 39.4478 619.553 35.0728 613.504 35.0728C607.454 35.0728 602.551 39.4478 602.551 44.8446C602.551 50.2415 607.454 54.6165 613.504 54.6165Z" stroke="#08F14E" stroke-width="5" stroke-linecap="round" stroke-linejoin="round"/>
<path d="M551.671 138.78V110.778L580.644 106.47V134.472" stroke="#08F14E" stroke-width="5" stroke-linecap="round" stroke-linejoin="round"/>
<path d="M544.428 145.242C548.428 145.242 551.671 142.349 551.671 138.78C551.671 135.212 548.428 132.318 544.428 132.318C540.428 132.318 537.185 135.212 537.185 138.78C537.185 142.349 540.428 145.242 544.428 145.242Z" stroke="#08F14E" stroke-width="5" stroke-linecap="round" stroke-linejoin="round"/>
<path d="M573.401 140.934C577.401 140.934 580.644 138.041 580.644 134.472C580.644 130.904 577.401 128.01 573.401 128.01C569.401 128.01 566.158 130.904 566.158 134.472C566.158 138.041 569.401 140.934 573.401 140.934Z" stroke="#08F14E" stroke-width="5" stroke-linecap="round" stroke-linejoin="round"/>
</svg>
