<svg width="633" height="188" viewBox="0 0 633 188" fill="none" xmlns="http://www.w3.org/2000/svg">
<g filter="url(#filter0_d_0_1)">
<mask id="path-1-outside-1_0_1" maskUnits="userSpaceOnUse" x="3.66494" y="101.283" width="507" height="79" fill="black">
<rect fill="white" x="3.66494" y="101.283" width="507" height="79"/>
<path d="M46.557 127.283C46.3676 124.916 45.4798 123.069 43.8936 121.743C42.3311 120.418 39.9519 119.755 36.7558 119.755C34.7199 119.755 33.0508 120.003 31.7487 120.5C30.4703 120.974 29.5234 121.625 28.9078 122.454C28.2923 123.282 27.9727 124.229 27.949 125.294C27.9017 126.17 28.0556 126.964 28.4107 127.674C28.7895 128.36 29.3813 128.988 30.1862 129.556C30.9912 130.1 32.021 130.598 33.2757 131.047C34.5305 131.497 36.0219 131.9 37.7502 132.255L43.7161 133.533C47.7407 134.385 51.1853 135.51 54.0499 136.907C56.9145 138.303 59.2582 139.949 61.0811 141.843C62.9041 143.713 64.2416 145.82 65.0939 148.164C65.9699 150.508 66.4197 153.064 66.4434 155.834C66.4197 160.616 65.2241 164.665 62.8567 167.979C60.4893 171.294 57.1039 173.815 52.7005 175.543C48.3207 177.271 43.0532 178.135 36.8979 178.135C30.5769 178.135 25.0608 177.2 20.3496 175.33C15.6621 173.46 12.0163 170.583 9.4121 166.701C6.83161 162.794 5.52952 157.799 5.50585 151.715H24.2558C24.3742 153.94 24.9306 155.811 25.9249 157.326C26.9192 158.841 28.316 159.989 30.1152 160.77C31.9381 161.552 34.1043 161.942 36.6138 161.942C38.7208 161.942 40.4845 161.682 41.905 161.161C43.3255 160.64 44.4026 159.918 45.1365 158.995C45.8704 158.071 46.2492 157.018 46.2729 155.834C46.2492 154.722 45.8823 153.751 45.172 152.922C44.4855 152.07 43.3491 151.312 41.763 150.65C40.1768 149.963 38.0343 149.324 35.3354 148.732L28.0911 147.169C21.6517 145.773 16.5736 143.441 12.8567 140.174C9.16352 136.883 7.32877 132.397 7.35244 126.715C7.32877 122.098 8.55983 118.062 11.0456 114.606C13.5551 111.125 17.0234 108.415 21.4505 106.473C25.9012 104.532 31.003 103.562 36.7558 103.562C42.6271 103.562 47.7052 104.544 51.9902 106.509C56.2753 108.474 59.5778 111.244 61.8979 114.819C64.2416 118.37 65.4254 122.525 65.449 127.283H46.557ZM70.971 104.556H92.9881L107.193 134.101H107.761L121.965 104.556H143.982L117.278 154.414V177.283H97.6756V154.414L70.971 104.556ZM189.623 127.283C189.434 124.916 188.546 123.069 186.96 121.743C185.398 120.418 183.018 119.755 179.822 119.755C177.786 119.755 176.117 120.003 174.815 120.5C173.537 120.974 172.59 121.625 171.974 122.454C171.359 123.282 171.039 124.229 171.015 125.294C170.968 126.17 171.122 126.964 171.477 127.674C171.856 128.36 172.448 128.988 173.253 129.556C174.058 130.1 175.087 130.598 176.342 131.047C177.597 131.497 179.088 131.9 180.817 132.255L186.782 133.533C190.807 134.385 194.252 135.51 197.116 136.907C199.981 138.303 202.325 139.949 204.148 141.843C205.97 143.713 207.308 145.82 208.16 148.164C209.036 150.508 209.486 153.064 209.51 155.834C209.486 160.616 208.291 164.665 205.923 167.979C203.556 171.294 200.17 173.815 195.767 175.543C191.387 177.271 186.12 178.135 179.964 178.135C173.643 178.135 168.127 177.2 163.416 175.33C158.729 173.46 155.083 170.583 152.479 166.701C149.898 162.794 148.596 157.799 148.572 151.715H167.322C167.441 153.94 167.997 155.811 168.991 157.326C169.986 158.841 171.382 159.989 173.182 160.77C175.005 161.552 177.171 161.942 179.68 161.942C181.787 161.942 183.551 161.682 184.971 161.161C186.392 160.64 187.469 159.918 188.203 158.995C188.937 158.071 189.316 157.018 189.339 155.834C189.316 154.722 188.949 153.751 188.238 152.922C187.552 152.07 186.416 151.312 184.829 150.65C183.243 149.963 181.101 149.324 178.402 148.732L171.157 147.169C164.718 145.773 159.64 143.441 155.923 140.174C152.23 136.883 150.395 132.397 150.419 126.715C150.395 122.098 151.626 118.062 154.112 114.606C156.621 111.125 160.09 108.415 164.517 106.473C168.968 104.532 174.069 103.562 179.822 103.562C185.693 103.562 190.772 104.544 195.057 106.509C199.342 108.474 202.644 111.244 204.964 114.819C207.308 118.37 208.492 122.525 208.515 127.283H189.623ZM215.032 120.465V104.556H278.242V120.465H256.367V177.283H236.907V120.465H215.032ZM285.673 177.283V104.556H317.065C322.463 104.556 327.186 105.538 331.234 107.503C335.282 109.468 338.431 112.297 340.68 115.991C342.929 119.684 344.053 124.111 344.053 129.272C344.053 134.48 342.893 138.872 340.573 142.446C338.277 146.021 335.045 148.72 330.879 150.543C326.736 152.366 321.894 153.277 316.355 153.277H297.605V137.937H312.377C314.697 137.937 316.674 137.652 318.308 137.084C319.965 136.492 321.231 135.557 322.107 134.279C323.007 133 323.457 131.331 323.457 129.272C323.457 127.188 323.007 125.496 322.107 124.194C321.231 122.868 319.965 121.897 318.308 121.282C316.674 120.643 314.697 120.323 312.377 120.323H305.417V177.283H285.673ZM328.286 143.902L346.468 177.283H325.019L307.264 143.902H328.286ZM395.509 104.556H415.254V151.147C415.254 156.687 413.928 161.481 411.276 165.529C408.649 169.553 404.979 172.667 400.268 174.868C395.557 177.046 390.088 178.135 383.862 178.135C377.588 178.135 372.096 177.046 367.384 174.868C362.673 172.667 359.004 169.553 356.376 165.529C353.772 161.481 352.47 156.687 352.47 151.147V104.556H372.214V149.442C372.214 151.691 372.711 153.704 373.705 155.479C374.7 157.231 376.073 158.604 377.825 159.598C379.6 160.593 381.613 161.09 383.862 161.09C386.134 161.09 388.147 160.593 389.899 159.598C391.65 158.604 393.024 157.231 394.018 155.479C395.012 153.704 395.509 151.691 395.509 149.442V104.556ZM424.638 104.556H449.211L466.115 145.749H466.967L483.871 104.556H508.444V177.283H489.126V135.238H488.558L472.365 176.715H460.717L444.524 134.954H443.956V177.283H424.638V104.556Z"/>
</mask>
<path d="M46.557 127.283C46.3676 124.916 45.4798 123.069 43.8936 121.743C42.3311 120.418 39.9519 119.755 36.7558 119.755C34.7199 119.755 33.0508 120.003 31.7487 120.5C30.4703 120.974 29.5234 121.625 28.9078 122.454C28.2923 123.282 27.9727 124.229 27.949 125.294C27.9017 126.17 28.0556 126.964 28.4107 127.674C28.7895 128.36 29.3813 128.988 30.1862 129.556C30.9912 130.1 32.021 130.598 33.2757 131.047C34.5305 131.497 36.0219 131.9 37.7502 132.255L43.7161 133.533C47.7407 134.385 51.1853 135.51 54.0499 136.907C56.9145 138.303 59.2582 139.949 61.0811 141.843C62.9041 143.713 64.2416 145.82 65.0939 148.164C65.9699 150.508 66.4197 153.064 66.4434 155.834C66.4197 160.616 65.2241 164.665 62.8567 167.979C60.4893 171.294 57.1039 173.815 52.7005 175.543C48.3207 177.271 43.0532 178.135 36.8979 178.135C30.5769 178.135 25.0608 177.2 20.3496 175.33C15.6621 173.46 12.0163 170.583 9.4121 166.701C6.83161 162.794 5.52952 157.799 5.50585 151.715H24.2558C24.3742 153.94 24.9306 155.811 25.9249 157.326C26.9192 158.841 28.316 159.989 30.1152 160.77C31.9381 161.552 34.1043 161.942 36.6138 161.942C38.7208 161.942 40.4845 161.682 41.905 161.161C43.3255 160.64 44.4026 159.918 45.1365 158.995C45.8704 158.071 46.2492 157.018 46.2729 155.834C46.2492 154.722 45.8823 153.751 45.172 152.922C44.4855 152.07 43.3491 151.312 41.763 150.65C40.1768 149.963 38.0343 149.324 35.3354 148.732L28.0911 147.169C21.6517 145.773 16.5736 143.441 12.8567 140.174C9.16352 136.883 7.32877 132.397 7.35244 126.715C7.32877 122.098 8.55983 118.062 11.0456 114.606C13.5551 111.125 17.0234 108.415 21.4505 106.473C25.9012 104.532 31.003 103.562 36.7558 103.562C42.6271 103.562 47.7052 104.544 51.9902 106.509C56.2753 108.474 59.5778 111.244 61.8979 114.819C64.2416 118.37 65.4254 122.525 65.449 127.283H46.557ZM70.971 104.556H92.9881L107.193 134.101H107.761L121.965 104.556H143.982L117.278 154.414V177.283H97.6756V154.414L70.971 104.556ZM189.623 127.283C189.434 124.916 188.546 123.069 186.96 121.743C185.398 120.418 183.018 119.755 179.822 119.755C177.786 119.755 176.117 120.003 174.815 120.5C173.537 120.974 172.59 121.625 171.974 122.454C171.359 123.282 171.039 124.229 171.015 125.294C170.968 126.17 171.122 126.964 171.477 127.674C171.856 128.36 172.448 128.988 173.253 129.556C174.058 130.1 175.087 130.598 176.342 131.047C177.597 131.497 179.088 131.9 180.817 132.255L186.782 133.533C190.807 134.385 194.252 135.51 197.116 136.907C199.981 138.303 202.325 139.949 204.148 141.843C205.97 143.713 207.308 145.82 208.16 148.164C209.036 150.508 209.486 153.064 209.51 155.834C209.486 160.616 208.291 164.665 205.923 167.979C203.556 171.294 200.17 173.815 195.767 175.543C191.387 177.271 186.12 178.135 179.964 178.135C173.643 178.135 168.127 177.2 163.416 175.33C158.729 173.46 155.083 170.583 152.479 166.701C149.898 162.794 148.596 157.799 148.572 151.715H167.322C167.441 153.94 167.997 155.811 168.991 157.326C169.986 158.841 171.382 159.989 173.182 160.77C175.005 161.552 177.171 161.942 179.68 161.942C181.787 161.942 183.551 161.682 184.971 161.161C186.392 160.64 187.469 159.918 188.203 158.995C188.937 158.071 189.316 157.018 189.339 155.834C189.316 154.722 188.949 153.751 188.238 152.922C187.552 152.07 186.416 151.312 184.829 150.65C183.243 149.963 181.101 149.324 178.402 148.732L171.157 147.169C164.718 145.773 159.64 143.441 155.923 140.174C152.23 136.883 150.395 132.397 150.419 126.715C150.395 122.098 151.626 118.062 154.112 114.606C156.621 111.125 160.09 108.415 164.517 106.473C168.968 104.532 174.069 103.562 179.822 103.562C185.693 103.562 190.772 104.544 195.057 106.509C199.342 108.474 202.644 111.244 204.964 114.819C207.308 118.37 208.492 122.525 208.515 127.283H189.623ZM215.032 120.465V104.556H278.242V120.465H256.367V177.283H236.907V120.465H215.032ZM285.673 177.283V104.556H317.065C322.463 104.556 327.186 105.538 331.234 107.503C335.282 109.468 338.431 112.297 340.68 115.991C342.929 119.684 344.053 124.111 344.053 129.272C344.053 134.48 342.893 138.872 340.573 142.446C338.277 146.021 335.045 148.72 330.879 150.543C326.736 152.366 321.894 153.277 316.355 153.277H297.605V137.937H312.377C314.697 137.937 316.674 137.652 318.308 137.084C319.965 136.492 321.231 135.557 322.107 134.279C323.007 133 323.457 131.331 323.457 129.272C323.457 127.188 323.007 125.496 322.107 124.194C321.231 122.868 319.965 121.897 318.308 121.282C316.674 120.643 314.697 120.323 312.377 120.323H305.417V177.283H285.673ZM328.286 143.902L346.468 177.283H325.019L307.264 143.902H328.286ZM395.509 104.556H415.254V151.147C415.254 156.687 413.928 161.481 411.276 165.529C408.649 169.553 404.979 172.667 400.268 174.868C395.557 177.046 390.088 178.135 383.862 178.135C377.588 178.135 372.096 177.046 367.384 174.868C362.673 172.667 359.004 169.553 356.376 165.529C353.772 161.481 352.47 156.687 352.47 151.147V104.556H372.214V149.442C372.214 151.691 372.711 153.704 373.705 155.479C374.7 157.231 376.073 158.604 377.825 159.598C379.6 160.593 381.613 161.09 383.862 161.09C386.134 161.09 388.147 160.593 389.899 159.598C391.65 158.604 393.024 157.231 394.018 155.479C395.012 153.704 395.509 151.691 395.509 149.442V104.556ZM424.638 104.556H449.211L466.115 145.749H466.967L483.871 104.556H508.444V177.283H489.126V135.238H488.558L472.365 176.715H460.717L444.524 134.954H443.956V177.283H424.638V104.556Z" fill="white"/>
<path d="M46.557 127.283L45.0618 127.403L45.1722 128.783H46.557V127.283ZM43.8936 121.743L42.9231 122.887L42.9317 122.894L43.8936 121.743ZM31.7487 120.5L32.2697 121.907L32.2768 121.904L32.2838 121.902L31.7487 120.5ZM28.9078 122.454L27.7037 121.559L27.7037 121.559L28.9078 122.454ZM27.949 125.294L29.4468 125.375L29.4481 125.352L29.4487 125.328L27.949 125.294ZM28.4107 127.674L27.069 128.345L27.0826 128.372L27.0973 128.398L28.4107 127.674ZM30.1862 129.556L29.3212 130.781L29.3334 130.79L29.3458 130.798L30.1862 129.556ZM37.7502 132.255L38.0645 130.788L38.0521 130.785L37.7502 132.255ZM43.7161 133.533L43.4018 135L43.4053 135.001L43.7161 133.533ZM54.0499 136.907L53.3925 138.255L54.0499 136.907ZM61.0811 141.843L60.0004 142.883L60.007 142.89L61.0811 141.843ZM65.0939 148.164L63.6842 148.676L63.6888 148.689L65.0939 148.164ZM66.4434 155.834L67.9433 155.842L67.9434 155.832L67.9433 155.821L66.4434 155.834ZM62.8567 167.979L64.0773 168.851L64.0773 168.851L62.8567 167.979ZM52.7005 175.543L52.1524 174.147L52.1499 174.148L52.7005 175.543ZM20.3496 175.33L19.7937 176.723L19.7961 176.724L20.3496 175.33ZM9.4121 166.701L8.1605 167.528L8.16637 167.536L9.4121 166.701ZM5.50585 151.715V150.215H4L4.00586 151.721L5.50585 151.715ZM24.2558 151.715L25.7537 151.635L25.6782 150.215H24.2558V151.715ZM25.9249 157.326L24.6708 158.149L24.6708 158.149L25.9249 157.326ZM30.1152 160.77L29.5178 162.146L29.5243 162.149L30.1152 160.77ZM41.905 161.161L42.4214 162.569L42.4214 162.569L41.905 161.161ZM45.1365 158.995L46.3108 159.928L46.3108 159.928L45.1365 158.995ZM46.2729 155.834L47.7726 155.864L47.7732 155.833L47.7726 155.802L46.2729 155.834ZM45.172 152.922L44.0039 153.863L44.0183 153.881L44.0332 153.899L45.172 152.922ZM41.763 150.65L41.1671 152.026L41.1758 152.03L41.1846 152.034L41.763 150.65ZM35.3354 148.732L35.6567 147.267L35.6517 147.266L35.3354 148.732ZM28.0911 147.169L27.7731 148.635L27.7748 148.636L28.0911 147.169ZM12.8567 140.174L11.8588 141.294L11.8664 141.3L12.8567 140.174ZM7.35244 126.715L8.85249 126.721L8.85242 126.707L7.35244 126.715ZM11.0456 114.606L9.82895 113.728L9.82785 113.73L11.0456 114.606ZM21.4505 106.473L20.8508 105.099L20.8481 105.1L21.4505 106.473ZM51.9902 106.509L51.365 107.872L51.365 107.872L51.9902 106.509ZM61.8979 114.819L60.6396 115.635L60.646 115.645L61.8979 114.819ZM65.449 127.283V128.783H66.9565L66.949 127.276L65.449 127.283ZM46.557 127.283L48.0522 127.164C47.8359 124.46 46.7974 122.215 44.8556 120.592L43.8936 121.743L42.9317 122.894C44.1622 123.923 44.8993 125.372 45.0618 127.403L46.557 127.283ZM43.8936 121.743L44.8641 120.6C42.9148 118.946 40.1183 118.255 36.7558 118.255V119.755V121.255C39.7854 121.255 41.7475 121.89 42.9232 122.887L43.8936 121.743ZM36.7558 119.755V118.255C34.6137 118.255 32.7461 118.514 31.2137 119.099L31.7487 120.5L32.2838 121.902C33.3556 121.493 34.826 121.255 36.7558 121.255V119.755ZM31.7487 120.5L31.2278 119.094C29.7626 119.637 28.54 120.433 27.7037 121.559L28.9078 122.454L30.112 123.348C30.5067 122.817 31.1781 122.311 32.2697 121.907L31.7487 120.5ZM28.9078 122.454L27.7037 121.559C26.8966 122.646 26.4797 123.896 26.4494 125.261L27.949 125.294L29.4487 125.328C29.4657 124.562 29.6881 123.919 30.112 123.348L28.9078 122.454ZM27.949 125.294L26.4512 125.214C26.3913 126.321 26.5856 127.378 27.069 128.345L28.4107 127.674L29.7523 127.003C29.5255 126.549 29.412 126.019 29.4468 125.375L27.949 125.294ZM28.4107 127.674L27.0973 128.398C27.6102 129.328 28.3772 130.115 29.3212 130.781L30.1862 129.556L31.0513 128.33C30.3855 127.86 29.9688 127.393 29.724 126.949L28.4107 127.674ZM30.1862 129.556L29.3458 130.798C30.285 131.434 31.4371 131.982 32.7695 132.459L33.2757 131.047L33.7819 129.635C32.6049 129.213 31.6974 128.767 31.0267 128.313L30.1862 129.556ZM33.2757 131.047L32.7695 132.459C34.1083 132.939 35.6714 133.359 37.4483 133.724L37.7502 132.255L38.0521 130.785C36.3725 130.44 34.9527 130.055 33.7819 129.635L33.2757 131.047ZM37.7502 132.255L37.4359 133.721L43.4018 135L43.7161 133.533L44.0304 132.066L38.0645 130.788L37.7502 132.255ZM43.7161 133.533L43.4053 135.001C47.3427 135.834 50.6646 136.925 53.3925 138.255L54.0499 136.907L54.7073 135.558C51.706 134.095 48.1387 132.936 44.0268 132.066L43.7161 133.533ZM54.0499 136.907L53.3925 138.255C56.1315 139.591 58.3223 141.139 60.0004 142.883L61.0811 141.843L62.1619 140.803C60.1942 138.758 57.6974 137.016 54.7073 135.558L54.0499 136.907ZM61.0811 141.843L60.007 142.89C61.6886 144.615 62.9081 146.542 63.6842 148.676L65.0939 148.164L66.5036 147.651C65.5752 145.098 64.1195 142.811 62.1553 140.796L61.0811 141.843ZM65.0939 148.164L63.6888 148.689C64.4973 150.852 64.9211 153.234 64.9434 155.847L66.4434 155.834L67.9433 155.821C67.9183 152.895 67.4424 150.163 66.499 147.639L65.0939 148.164ZM66.4434 155.834L64.9434 155.827C64.921 160.354 63.7935 164.087 61.6361 167.107L62.8567 167.979L64.0773 168.851C66.6548 165.243 67.9184 160.878 67.9433 155.842L66.4434 155.834ZM62.8567 167.979L61.6361 167.107C59.4632 170.149 56.3302 172.507 52.1524 174.147L52.7005 175.543L53.2485 176.939C57.8775 175.123 61.5153 172.438 64.0773 168.851L62.8567 167.979ZM52.7005 175.543L52.1499 174.148C47.9902 175.789 42.9197 176.635 36.8979 176.635V178.135V179.635C43.1867 179.635 48.6512 178.753 53.251 176.938L52.7005 175.543ZM36.8979 178.135V176.635C30.7212 176.635 25.4005 175.721 20.9031 173.936L20.3496 175.33L19.7961 176.724C24.7211 178.679 30.4325 179.635 36.8979 179.635V178.135ZM20.3496 175.33L20.9055 173.937C16.4754 172.169 13.08 169.476 10.6578 165.865L9.4121 166.701L8.16637 167.536C10.9525 171.69 14.8488 174.75 19.7937 176.723L20.3496 175.33ZM9.4121 166.701L10.6637 165.874C8.2859 162.275 7.02871 157.588 7.00584 151.709L5.50585 151.715L4.00586 151.721C4.03033 158.011 5.37732 163.314 8.16053 167.528L9.4121 166.701ZM5.50585 151.715V153.215H24.2558V151.715V150.215H5.50585V151.715ZM24.2558 151.715L22.758 151.795C22.8872 154.224 23.5009 156.366 24.6708 158.149L25.9249 157.326L27.179 156.503C26.3602 155.255 25.8612 153.656 25.7537 151.635L24.2558 151.715ZM25.9249 157.326L24.6708 158.149C25.8387 159.928 27.4735 161.259 29.5178 162.146L30.1152 160.77L30.7127 159.394C29.1584 158.72 27.9997 157.753 27.179 156.503L25.9249 157.326ZM30.1152 160.77L29.5243 162.149C31.5764 163.029 33.9531 163.442 36.6138 163.442V161.942V160.442C34.2555 160.442 32.2998 160.075 30.7061 159.392L30.1152 160.77ZM36.6138 161.942V163.442C38.833 163.442 40.7845 163.169 42.4214 162.569L41.905 161.161L41.3886 159.753C40.1846 160.194 38.6087 160.442 36.6138 160.442V161.942ZM41.905 161.161L42.4214 162.569C44.0286 161.98 45.3632 161.12 46.3108 159.928L45.1365 158.995L43.9623 158.061C43.4421 158.716 42.6223 159.3 41.3886 159.753L41.905 161.161ZM45.1365 158.995L46.3108 159.928C47.2501 158.746 47.7424 157.375 47.7726 155.864L46.2729 155.834L44.7732 155.804C44.7561 156.661 44.4908 157.397 43.9623 158.061L45.1365 158.995ZM46.2729 155.834L47.7726 155.802C47.7417 154.35 47.2519 153.044 46.3109 151.946L45.172 152.922L44.0332 153.899C44.5127 154.458 44.7568 155.093 44.7732 155.866L46.2729 155.834ZM45.172 152.922L46.3402 151.981C45.4323 150.854 44.039 149.975 42.3413 149.266L41.763 150.65L41.1846 152.034C42.6593 152.65 43.5387 153.286 44.0039 153.863L45.172 152.922ZM41.763 150.65L42.3588 149.273C40.6479 148.532 38.401 147.869 35.6567 147.267L35.3354 148.732L35.0141 150.197C37.6675 150.779 39.7057 151.394 41.1671 152.026L41.763 150.65ZM35.3354 148.732L35.6517 147.266L28.4073 145.703L28.0911 147.169L27.7748 148.636L35.0191 150.198L35.3354 148.732ZM28.0911 147.169L28.4091 145.704C22.1393 144.344 17.3191 142.099 13.847 139.047L12.8567 140.174L11.8664 141.3C15.828 144.783 21.1641 147.202 27.7731 148.635L28.0911 147.169ZM12.8567 140.174L13.8546 139.054C10.5318 136.093 8.83025 132.044 8.85243 126.721L7.35244 126.715L5.85245 126.709C5.82728 132.75 7.79528 137.673 11.8588 141.294L12.8567 140.174ZM7.35244 126.715L8.85242 126.707C8.83023 122.379 9.97846 118.659 12.2634 115.481L11.0456 114.606L9.82785 113.73C7.14119 117.466 5.8273 121.817 5.85246 126.723L7.35244 126.715ZM11.0456 114.606L12.2623 115.483C14.5959 112.247 17.8394 109.695 22.0528 107.847L21.4505 106.473L20.8481 105.1C16.2073 107.135 12.5143 110.004 9.82895 113.728L11.0456 114.606ZM21.4505 106.473L22.0501 107.848C26.2801 106.003 31.1718 105.062 36.7558 105.062V103.562V102.062C30.8342 102.062 25.5223 103.061 20.8508 105.099L21.4505 106.473ZM36.7558 103.562V105.062C42.4628 105.062 47.3181 106.017 51.365 107.872L51.9902 106.509L52.6155 105.146C48.0923 103.071 42.7914 102.062 36.7558 102.062V103.562ZM51.9902 106.509L51.365 107.872C55.4198 109.732 58.4906 112.324 60.6397 115.635L61.8979 114.819L63.1561 114.002C60.665 110.164 57.1307 107.216 52.6155 105.146L51.9902 106.509ZM61.8979 114.819L60.646 115.645C62.8107 118.925 63.9266 122.788 63.9491 127.291L65.449 127.283L66.949 127.276C66.9241 122.262 65.6726 117.815 63.1498 113.992L61.8979 114.819ZM65.449 127.283V125.783H46.557V127.283V128.783H65.449V127.283ZM70.971 104.556V103.056H68.466L69.6488 105.264L70.971 104.556ZM92.9881 104.556L94.34 103.906L93.9313 103.056H92.9881V104.556ZM107.193 134.101L105.841 134.751L106.249 135.601H107.193V134.101ZM107.761 134.101V135.601H108.704L109.113 134.751L107.761 134.101ZM121.965 104.556V103.056H121.022L120.613 103.906L121.965 104.556ZM143.982 104.556L145.305 105.264L146.487 103.056H143.982V104.556ZM117.278 154.414L115.956 153.706L115.778 154.037V154.414H117.278ZM117.278 177.283V178.783H118.778V177.283H117.278ZM97.6756 177.283H96.1756V178.783H97.6756V177.283ZM97.6756 154.414H99.1756V154.037L98.9979 153.706L97.6756 154.414ZM70.971 104.556V106.056H92.9881V104.556V103.056H70.971V104.556ZM92.9881 104.556L91.6362 105.206L105.841 134.751L107.193 134.101L108.545 133.451L94.34 103.906L92.9881 104.556ZM107.193 134.101V135.601H107.761V134.101V132.601H107.193V134.101ZM107.761 134.101L109.113 134.751L123.317 105.206L121.965 104.556L120.613 103.906L106.409 133.451L107.761 134.101ZM121.965 104.556V106.056H143.982V104.556V103.056H121.965V104.556ZM143.982 104.556L142.66 103.848L115.956 153.706L117.278 154.414L118.6 155.122L145.305 105.264L143.982 104.556ZM117.278 154.414H115.778V177.283H117.278H118.778V154.414H117.278ZM117.278 177.283V175.783H97.6756V177.283V178.783H117.278V177.283ZM97.6756 177.283H99.1756V154.414H97.6756H96.1756V177.283H97.6756ZM97.6756 154.414L98.9979 153.706L72.2933 103.848L70.971 104.556L69.6488 105.264L96.3533 155.122L97.6756 154.414ZM189.623 127.283L188.128 127.403L188.239 128.783H189.623V127.283ZM186.96 121.743L185.99 122.887L185.998 122.894L186.96 121.743ZM174.815 120.5L175.336 121.907L175.343 121.904L175.35 121.902L174.815 120.5ZM171.974 122.454L170.77 121.559L170.77 121.559L171.974 122.454ZM171.015 125.294L172.513 125.375L172.515 125.352L172.515 125.328L171.015 125.294ZM171.477 127.674L170.135 128.345L170.149 128.372L170.164 128.398L171.477 127.674ZM173.253 129.556L172.388 130.781L172.4 130.79L172.412 130.798L173.253 129.556ZM180.817 132.255L181.131 130.788L181.118 130.785L180.817 132.255ZM186.782 133.533L186.468 135L186.472 135.001L186.782 133.533ZM197.116 136.907L196.459 138.255L197.116 136.907ZM204.148 141.843L203.067 142.883L203.073 142.89L204.148 141.843ZM208.16 148.164L206.751 148.676L206.755 148.689L208.16 148.164ZM209.51 155.834L211.01 155.842L211.01 155.832L211.01 155.821L209.51 155.834ZM205.923 167.979L207.144 168.851L207.144 168.851L205.923 167.979ZM195.767 175.543L195.219 174.147L195.216 174.148L195.767 175.543ZM163.416 175.33L162.86 176.723L162.863 176.724L163.416 175.33ZM152.479 166.701L151.227 167.528L151.233 167.536L152.479 166.701ZM148.572 151.715V150.215H147.066L147.072 151.721L148.572 151.715ZM167.322 151.715L168.82 151.635L168.745 150.215H167.322V151.715ZM168.991 157.326L167.737 158.149L167.737 158.149L168.991 157.326ZM173.182 160.77L172.584 162.146L172.591 162.149L173.182 160.77ZM184.971 161.161L185.488 162.569L185.488 162.569L184.971 161.161ZM188.203 158.995L189.377 159.928L189.377 159.928L188.203 158.995ZM189.339 155.834L190.839 155.864L190.84 155.833L190.839 155.802L189.339 155.834ZM188.238 152.922L187.07 153.863L187.085 153.881L187.1 153.899L188.238 152.922ZM184.829 150.65L184.234 152.026L184.242 152.03L184.251 152.034L184.829 150.65ZM178.402 148.732L178.723 147.267L178.718 147.266L178.402 148.732ZM171.157 147.169L170.84 148.635L170.841 148.636L171.157 147.169ZM155.923 140.174L154.925 141.294L154.933 141.3L155.923 140.174ZM150.419 126.715L151.919 126.721L151.919 126.707L150.419 126.715ZM154.112 114.606L152.895 113.728L152.894 113.73L154.112 114.606ZM164.517 106.473L163.917 105.099L163.914 105.1L164.517 106.473ZM195.057 106.509L194.431 107.872L194.431 107.872L195.057 106.509ZM204.964 114.819L203.706 115.635L203.712 115.645L204.964 114.819ZM208.515 127.283V128.783H210.023L210.015 127.276L208.515 127.283ZM189.623 127.283L191.119 127.164C190.902 124.46 189.864 122.215 187.922 120.592L186.96 121.743L185.998 122.894C187.229 123.923 187.966 125.372 188.128 127.403L189.623 127.283ZM186.96 121.743L187.931 120.6C185.981 118.946 183.185 118.255 179.822 118.255V119.755V121.255C182.852 121.255 184.814 121.89 185.99 122.887L186.96 121.743ZM179.822 119.755V118.255C177.68 118.255 175.812 118.514 174.28 119.099L174.815 120.5L175.35 121.902C176.422 121.493 177.892 121.255 179.822 121.255V119.755ZM174.815 120.5L174.294 119.094C172.829 119.637 171.606 120.433 170.77 121.559L171.974 122.454L173.178 123.348C173.573 122.817 174.244 122.311 175.336 121.907L174.815 120.5ZM171.974 122.454L170.77 121.559C169.963 122.646 169.546 123.896 169.516 125.261L171.015 125.294L172.515 125.328C172.532 124.562 172.754 123.919 173.178 123.348L171.974 122.454ZM171.015 125.294L169.518 125.214C169.458 126.321 169.652 127.378 170.135 128.345L171.477 127.674L172.819 127.003C172.592 126.549 172.478 126.019 172.513 125.375L171.015 125.294ZM171.477 127.674L170.164 128.398C170.677 129.328 171.444 130.115 172.388 130.781L173.253 129.556L174.118 128.33C173.452 127.86 173.035 127.393 172.79 126.949L171.477 127.674ZM173.253 129.556L172.412 130.798C173.351 131.434 174.504 131.982 175.836 132.459L176.342 131.047L176.848 129.635C175.671 129.213 174.764 128.767 174.093 128.313L173.253 129.556ZM176.342 131.047L175.836 132.459C177.175 132.939 178.738 133.359 180.515 133.724L180.817 132.255L181.118 130.785C179.439 130.44 178.019 130.055 176.848 129.635L176.342 131.047ZM180.817 132.255L180.502 133.721L186.468 135L186.782 133.533L187.097 132.066L181.131 130.788L180.817 132.255ZM186.782 133.533L186.472 135.001C190.409 135.834 193.731 136.925 196.459 138.255L197.116 136.907L197.774 135.558C194.772 134.095 191.205 132.936 187.093 132.066L186.782 133.533ZM197.116 136.907L196.459 138.255C199.198 139.591 201.389 141.139 203.067 142.883L204.148 141.843L205.228 140.803C203.261 138.758 200.764 137.016 197.774 135.558L197.116 136.907ZM204.148 141.843L203.073 142.89C204.755 144.615 205.974 146.542 206.751 148.676L208.16 148.164L209.57 147.651C208.642 145.098 207.186 142.811 205.222 140.796L204.148 141.843ZM208.16 148.164L206.755 148.689C207.564 150.852 207.987 153.234 208.01 155.847L209.51 155.834L211.01 155.821C210.985 152.895 210.509 150.163 209.565 147.639L208.16 148.164ZM209.51 155.834L208.01 155.827C207.987 160.354 206.86 164.087 204.703 167.107L205.923 167.979L207.144 168.851C209.721 165.243 210.985 160.878 211.01 155.842L209.51 155.834ZM205.923 167.979L204.703 167.107C202.53 170.149 199.397 172.507 195.219 174.147L195.767 175.543L196.315 176.939C200.944 175.123 204.582 172.438 207.144 168.851L205.923 167.979ZM195.767 175.543L195.216 174.148C191.057 175.789 185.986 176.635 179.964 176.635V178.135V179.635C186.253 179.635 191.718 178.753 196.317 176.938L195.767 175.543ZM179.964 178.135V176.635C173.788 176.635 168.467 175.721 163.969 173.936L163.416 175.33L162.863 176.724C167.787 178.679 173.499 179.635 179.964 179.635V178.135ZM163.416 175.33L163.972 173.937C159.542 172.169 156.146 169.476 153.724 165.865L152.479 166.701L151.233 167.536C154.019 171.69 157.915 174.75 162.86 176.723L163.416 175.33ZM152.479 166.701L153.73 165.874C151.352 162.275 150.095 157.588 150.072 151.709L148.572 151.715L147.072 151.721C147.097 158.011 148.444 163.314 151.227 167.528L152.479 166.701ZM148.572 151.715V153.215H167.322V151.715V150.215H148.572V151.715ZM167.322 151.715L165.824 151.795C165.954 154.224 166.567 156.366 167.737 158.149L168.991 157.326L170.245 156.503C169.427 155.255 168.928 153.656 168.82 151.635L167.322 151.715ZM168.991 157.326L167.737 158.149C168.905 159.928 170.54 161.259 172.584 162.146L173.182 160.77L173.779 159.394C172.225 158.72 171.066 157.753 170.245 156.503L168.991 157.326ZM173.182 160.77L172.591 162.149C174.643 163.029 177.02 163.442 179.68 163.442V161.942V160.442C177.322 160.442 175.366 160.075 173.773 159.392L173.182 160.77ZM179.68 161.942V163.442C181.899 163.442 183.851 163.169 185.488 162.569L184.971 161.161L184.455 159.753C183.251 160.194 181.675 160.442 179.68 160.442V161.942ZM184.971 161.161L185.488 162.569C187.095 161.98 188.43 161.12 189.377 159.928L188.203 158.995L187.029 158.061C186.508 158.716 185.689 159.3 184.455 159.753L184.971 161.161ZM188.203 158.995L189.377 159.928C190.316 158.746 190.809 157.375 190.839 155.864L189.339 155.834L187.84 155.804C187.822 156.661 187.557 157.397 187.029 158.061L188.203 158.995ZM189.339 155.834L190.839 155.802C190.808 154.35 190.318 153.044 189.377 151.946L188.238 152.922L187.1 153.899C187.579 154.458 187.823 155.093 187.84 155.866L189.339 155.834ZM188.238 152.922L189.407 151.981C188.499 150.854 187.105 149.975 185.408 149.266L184.829 150.65L184.251 152.034C185.726 152.65 186.605 153.286 187.07 153.863L188.238 152.922ZM184.829 150.65L185.425 149.273C183.714 148.532 181.467 147.869 178.723 147.267L178.402 148.732L178.08 150.197C180.734 150.779 182.772 151.394 184.234 152.026L184.829 150.65ZM178.402 148.732L178.718 147.266L171.474 145.703L171.157 147.169L170.841 148.636L178.086 150.198L178.402 148.732ZM171.157 147.169L171.475 145.704C165.206 144.344 160.386 142.099 156.913 139.047L155.923 140.174L154.933 141.3C158.894 144.783 164.23 147.202 170.84 148.635L171.157 147.169ZM155.923 140.174L156.921 139.054C153.598 136.093 151.897 132.044 151.919 126.721L150.419 126.715L148.919 126.709C148.894 132.75 150.862 137.673 154.925 141.294L155.923 140.174ZM150.419 126.715L151.919 126.707C151.897 122.379 153.045 118.659 155.33 115.481L154.112 114.606L152.894 113.73C150.208 117.466 148.894 121.817 148.919 126.723L150.419 126.715ZM154.112 114.606L155.329 115.483C157.662 112.247 160.906 109.695 165.119 107.847L164.517 106.473L163.914 105.1C159.274 107.135 155.581 110.004 152.895 113.728L154.112 114.606ZM164.517 106.473L165.117 107.848C169.347 106.003 174.238 105.062 179.822 105.062V103.562V102.062C173.901 102.062 168.589 103.061 163.917 105.099L164.517 106.473ZM179.822 103.562V105.062C185.529 105.062 190.384 106.017 194.431 107.872L195.057 106.509L195.682 105.146C191.159 103.071 185.858 102.062 179.822 102.062V103.562ZM195.057 106.509L194.431 107.872C198.486 109.732 201.557 112.324 203.706 115.635L204.964 114.819L206.223 114.002C203.731 110.164 200.197 107.216 195.682 105.146L195.057 106.509ZM204.964 114.819L203.712 115.645C205.877 118.925 206.993 122.788 207.015 127.291L208.515 127.283L210.015 127.276C209.99 122.262 208.739 117.815 206.216 113.992L204.964 114.819ZM208.515 127.283V125.783H189.623V127.283V128.783H208.515V127.283ZM215.032 120.465H213.532V121.965H215.032V120.465ZM215.032 104.556V103.056H213.532V104.556H215.032ZM278.242 104.556H279.742V103.056H278.242V104.556ZM278.242 120.465V121.965H279.742V120.465H278.242ZM256.367 120.465V118.965H254.867V120.465H256.367ZM256.367 177.283V178.783H257.867V177.283H256.367ZM236.907 177.283H235.407V178.783H236.907V177.283ZM236.907 120.465H238.407V118.965H236.907V120.465ZM215.032 120.465H216.532V104.556H215.032H213.532V120.465H215.032ZM215.032 104.556V106.056H278.242V104.556V103.056H215.032V104.556ZM278.242 104.556H276.742V120.465H278.242H279.742V104.556H278.242ZM278.242 120.465V118.965H256.367V120.465V121.965H278.242V120.465ZM256.367 120.465H254.867V177.283H256.367H257.867V120.465H256.367ZM256.367 177.283V175.783H236.907V177.283V178.783H256.367V177.283ZM236.907 177.283H238.407V120.465H236.907H235.407V177.283H236.907ZM236.907 120.465V118.965H215.032V120.465V121.965H236.907V120.465ZM285.673 177.283H284.173V178.783H285.673V177.283ZM285.673 104.556V103.056H284.173V104.556H285.673ZM331.234 107.503L330.579 108.853L331.234 107.503ZM340.68 115.991L341.961 115.21L341.961 115.21L340.68 115.991ZM340.573 142.446L339.315 141.63L339.311 141.636L340.573 142.446ZM330.879 150.543L330.277 149.169L330.275 149.17L330.879 150.543ZM297.605 153.277H296.105V154.777H297.605V153.277ZM297.605 137.937V136.437H296.105V137.937H297.605ZM318.308 137.084L318.8 138.501L318.812 138.497L318.308 137.084ZM322.107 134.279L320.881 133.416L320.875 133.423L320.87 133.431L322.107 134.279ZM322.107 124.194L320.856 125.021L320.864 125.034L320.873 125.046L322.107 124.194ZM318.308 121.282L317.761 122.679L317.773 122.683L317.785 122.688L318.308 121.282ZM305.417 120.323V118.823H303.917V120.323H305.417ZM305.417 177.283V178.783H306.917V177.283H305.417ZM328.286 143.902L329.604 143.185L329.177 142.402H328.286V143.902ZM346.468 177.283V178.783H348.993L347.785 176.566L346.468 177.283ZM325.019 177.283L323.695 177.988L324.118 178.783H325.019V177.283ZM307.264 143.902V142.402H304.767L305.939 144.607L307.264 143.902ZM285.673 177.283H287.173V104.556H285.673H284.173V177.283H285.673ZM285.673 104.556V106.056H317.065V104.556V103.056H285.673V104.556ZM317.065 104.556V106.056C322.28 106.056 326.771 107.005 330.579 108.853L331.234 107.503L331.889 106.154C327.6 104.072 322.645 103.056 317.065 103.056V104.556ZM331.234 107.503L330.579 108.853C334.379 110.697 337.306 113.334 339.399 116.771L340.68 115.991L341.961 115.21C339.556 111.261 336.185 108.239 331.889 106.154L331.234 107.503ZM340.68 115.991L339.399 116.771C341.479 120.187 342.553 124.332 342.553 129.272H344.053H345.553C345.553 123.889 344.379 119.181 341.961 115.21L340.68 115.991ZM344.053 129.272H342.553C342.553 134.255 341.445 138.347 339.315 141.63L340.573 142.446L341.832 143.263C344.341 139.396 345.553 134.705 345.553 129.272H344.053ZM340.573 142.446L339.311 141.636C337.186 144.944 334.193 147.456 330.277 149.169L330.879 150.543L331.48 151.917C335.898 149.985 339.368 147.099 341.835 143.257L340.573 142.446ZM330.879 150.543L330.275 149.17C326.36 150.893 321.732 151.777 316.355 151.777V153.277V154.777C322.057 154.777 327.112 153.839 331.483 151.916L330.879 150.543ZM316.355 153.277V151.777H297.605V153.277V154.777H316.355V153.277ZM297.605 153.277H299.105V137.937H297.605H296.105V153.277H297.605ZM297.605 137.937V139.437H312.377V137.937V136.437H297.605V137.937ZM312.377 137.937V139.437C314.812 139.437 316.965 139.14 318.8 138.501L318.308 137.084L317.815 135.668C316.384 136.165 314.583 136.437 312.377 136.437V137.937ZM318.308 137.084L318.812 138.497C320.725 137.814 322.267 136.7 323.345 135.127L322.107 134.279L320.87 133.431C320.196 134.414 319.205 135.171 317.803 135.672L318.308 137.084ZM322.107 134.279L323.334 135.142C324.46 133.542 324.957 131.543 324.957 129.272H323.457H321.957C321.957 131.12 321.554 132.459 320.881 133.416L322.107 134.279ZM323.457 129.272H324.957C324.957 126.979 324.462 124.962 323.342 123.341L322.107 124.194L320.873 125.046C321.553 126.029 321.957 127.398 321.957 129.272H323.457ZM322.107 124.194L323.359 123.367C322.288 121.746 320.75 120.589 318.83 119.876L318.308 121.282L317.785 122.688C319.179 123.206 320.175 123.99 320.856 125.021L322.107 124.194ZM318.308 121.282L318.854 119.885C317 119.159 314.827 118.823 312.377 118.823V120.323V121.823C314.567 121.823 316.348 122.126 317.761 122.679L318.308 121.282ZM312.377 120.323V118.823H305.417V120.323V121.823H312.377V120.323ZM305.417 120.323H303.917V177.283H305.417H306.917V120.323H305.417ZM305.417 177.283V175.783H285.673V177.283V178.783H305.417V177.283ZM328.286 143.902L326.969 144.62L345.151 178.001L346.468 177.283L347.785 176.566L329.604 143.185L328.286 143.902ZM346.468 177.283V175.783H325.019V177.283V178.783H346.468V177.283ZM325.019 177.283L326.344 176.579L308.588 143.198L307.264 143.902L305.939 144.607L323.695 177.988L325.019 177.283ZM307.264 143.902V145.402H328.286V143.902V142.402H307.264V143.902ZM395.509 104.556V103.056H394.009V104.556H395.509ZM415.254 104.556H416.754V103.056H415.254V104.556ZM411.276 165.529L410.022 164.707L410.02 164.709L411.276 165.529ZM400.268 174.868L400.897 176.23L400.903 176.227L400.268 174.868ZM367.384 174.868L366.749 176.227L366.755 176.23L367.384 174.868ZM356.376 165.529L355.114 166.34L355.12 166.349L356.376 165.529ZM352.47 104.556V103.056H350.97V104.556H352.47ZM372.214 104.556H373.714V103.056H372.214V104.556ZM373.705 155.479L372.397 156.212L372.401 156.22L373.705 155.479ZM377.825 159.598L377.084 160.903L377.092 160.907L377.825 159.598ZM389.899 159.598L390.639 160.903L390.639 160.903L389.899 159.598ZM394.018 155.479L395.322 156.22L395.327 156.212L394.018 155.479ZM395.509 104.556V106.056H415.254V104.556V103.056H395.509V104.556ZM415.254 104.556H413.754V151.147H415.254H416.754V104.556H415.254ZM415.254 151.147H413.754C413.754 156.438 412.491 160.937 410.022 164.707L411.276 165.529L412.531 166.351C415.365 162.024 416.754 156.935 416.754 151.147H415.254ZM411.276 165.529L410.02 164.709C407.558 168.48 404.112 171.416 399.633 173.509L400.268 174.868L400.903 176.227C405.846 173.917 409.739 170.627 412.532 166.349L411.276 165.529ZM400.268 174.868L399.638 173.507C395.16 175.577 389.913 176.635 383.862 176.635V178.135V179.635C390.263 179.635 395.953 178.516 400.897 176.23L400.268 174.868ZM383.862 178.135V176.635C377.761 176.635 372.491 175.577 368.014 173.507L367.384 174.868L366.755 176.23C371.7 178.516 377.415 179.635 383.862 179.635V178.135ZM367.384 174.868L368.019 173.509C363.54 171.416 360.094 168.48 357.632 164.709L356.376 165.529L355.12 166.349C357.913 170.627 361.807 173.917 366.749 176.227L367.384 174.868ZM356.376 165.529L357.637 164.717C355.211 160.946 353.97 156.443 353.97 151.147H352.47H350.97C350.97 156.93 352.332 162.015 355.114 166.34L356.376 165.529ZM352.47 151.147H353.97V104.556H352.47H350.97V151.147H352.47ZM352.47 104.556V106.056H372.214V104.556V103.056H352.47V104.556ZM372.214 104.556H370.714V149.442H372.214H373.714V104.556H372.214ZM372.214 149.442H370.714C370.714 151.92 371.264 154.19 372.397 156.212L373.705 155.479L375.014 154.746C374.158 153.218 373.714 151.462 373.714 149.442H372.214ZM373.705 155.479L372.401 156.22C373.529 158.207 375.097 159.775 377.084 160.903L377.825 159.598L378.565 158.294C377.049 157.433 375.871 156.255 375.01 154.739L373.705 155.479ZM377.825 159.598L377.092 160.907C379.114 162.04 381.384 162.59 383.862 162.59V161.09V159.59C381.842 159.59 380.086 159.146 378.558 158.29L377.825 159.598ZM383.862 161.09V162.59C386.36 162.59 388.634 162.041 390.639 160.903L389.899 159.598L389.158 158.294C387.66 159.144 385.909 159.59 383.862 159.59V161.09ZM389.899 159.598L390.639 160.903C392.626 159.775 394.194 158.207 395.322 156.22L394.018 155.479L392.713 154.739C391.853 156.255 390.675 157.433 389.158 158.294L389.899 159.598ZM394.018 155.479L395.327 156.212C396.459 154.19 397.009 151.92 397.009 149.442H395.509H394.009C394.009 151.462 393.565 153.218 392.709 154.746L394.018 155.479ZM395.509 149.442H397.009V104.556H395.509H394.009V149.442H395.509ZM424.638 104.556V103.056H423.138V104.556H424.638ZM449.211 104.556L450.599 103.986L450.217 103.056H449.211V104.556ZM466.115 145.749L464.727 146.318L465.109 147.249H466.115V145.749ZM466.967 145.749V147.249H467.973L468.355 146.318L466.967 145.749ZM483.871 104.556V103.056H482.865L482.483 103.986L483.871 104.556ZM508.444 104.556H509.944V103.056H508.444V104.556ZM508.444 177.283V178.783H509.944V177.283H508.444ZM489.126 177.283H487.626V178.783H489.126V177.283ZM489.126 135.238H490.626V133.738H489.126V135.238ZM488.558 135.238V133.738H487.533L487.161 134.692L488.558 135.238ZM472.365 176.715V178.215H473.39L473.762 177.26L472.365 176.715ZM460.717 176.715L459.319 177.257L459.69 178.215H460.717V176.715ZM444.524 134.954L445.923 134.411L445.551 133.454H444.524V134.954ZM443.956 134.954V133.454H442.456V134.954H443.956ZM443.956 177.283V178.783H445.456V177.283H443.956ZM424.638 177.283H423.138V178.783H424.638V177.283ZM424.638 104.556V106.056H449.211V104.556V103.056H424.638V104.556ZM449.211 104.556L447.824 105.125L464.727 146.318L466.115 145.749L467.503 145.18L450.599 103.986L449.211 104.556ZM466.115 145.749V147.249H466.967V145.749V144.249H466.115V145.749ZM466.967 145.749L468.355 146.318L485.258 105.125L483.871 104.556L482.483 103.986L465.579 145.18L466.967 145.749ZM483.871 104.556V106.056H508.444V104.556V103.056H483.871V104.556ZM508.444 104.556H506.944V177.283H508.444H509.944V104.556H508.444ZM508.444 177.283V175.783H489.126V177.283V178.783H508.444V177.283ZM489.126 177.283H490.626V135.238H489.126H487.626V177.283H489.126ZM489.126 135.238V133.738H488.558V135.238V136.738H489.126V135.238ZM488.558 135.238L487.161 134.692L470.968 176.169L472.365 176.715L473.762 177.26L489.955 135.783L488.558 135.238ZM472.365 176.715V175.215H460.717V176.715V178.215H472.365V176.715ZM460.717 176.715L462.116 176.173L445.923 134.411L444.524 134.954L443.125 135.496L459.319 177.257L460.717 176.715ZM444.524 134.954V133.454H443.956V134.954V136.454H444.524V134.954ZM443.956 134.954H442.456V177.283H443.956H445.456V134.954H443.956ZM443.956 177.283V175.783H424.638V177.283V178.783H443.956V177.283ZM424.638 177.283H426.138V104.556H424.638H423.138V177.283H424.638Z" fill="#08F14E" mask="url(#path-1-outside-1_0_1)"/>
</g>
<path d="M482.259 75.425V42.1607L518.766 37.0431V70.3074" stroke="#08F14E" stroke-width="8" stroke-linecap="round" stroke-linejoin="round"/>
<path d="M473.132 83.1014C478.173 83.1014 482.259 79.6645 482.259 75.425C482.259 71.1854 478.173 67.7486 473.132 67.7486C468.092 67.7486 464.006 71.1854 464.006 75.425C464.006 79.6645 468.092 83.1014 473.132 83.1014Z" stroke="#08F14E" stroke-width="8" stroke-linecap="round" stroke-linejoin="round"/>
<path d="M509.639 77.9838C514.68 77.9838 518.766 74.547 518.766 70.3074C518.766 66.0679 514.68 62.631 509.639 62.631C504.599 62.631 500.513 66.0679 500.513 70.3074C500.513 74.547 504.599 77.9838 509.639 77.9838Z" stroke="#08F14E" stroke-width="8" stroke-linecap="round" stroke-linejoin="round"/>
<path d="M584.644 52.8592V10.5146L628.457 4.00003V46.3446" stroke="#08F14E" stroke-width="8" stroke-linecap="round" stroke-linejoin="round"/>
<path d="M573.691 62.631C579.74 62.631 584.644 58.256 584.644 52.8592C584.644 47.4624 579.74 43.0874 573.691 43.0874C567.642 43.0874 562.738 47.4624 562.738 52.8592C562.738 58.256 567.642 62.631 573.691 62.631Z" stroke="#08F14E" stroke-width="8" stroke-linecap="round" stroke-linejoin="round"/>
<path d="M617.504 56.1165C623.553 56.1165 628.457 51.7415 628.457 46.3446C628.457 40.9478 623.553 36.5728 617.504 36.5728C611.454 36.5728 606.551 40.9478 606.551 46.3446C606.551 51.7415 611.454 56.1165 617.504 56.1165Z" stroke="#08F14E" stroke-width="8" stroke-linecap="round" stroke-linejoin="round"/>
<path d="M555.671 140.28V112.278L584.644 107.97V135.972" stroke="#08F14E" stroke-width="8" stroke-linecap="round" stroke-linejoin="round"/>
<path d="M548.428 146.742C552.429 146.742 555.671 143.849 555.671 140.28C555.671 136.712 552.429 133.818 548.428 133.818C544.428 133.818 541.185 136.712 541.185 140.28C541.185 143.849 544.428 146.742 548.428 146.742Z" stroke="#08F14E" stroke-width="8" stroke-linecap="round" stroke-linejoin="round"/>
<path d="M577.401 142.434C581.401 142.434 584.644 139.541 584.644 135.972C584.644 132.404 581.401 129.51 577.401 129.51C573.401 129.51 570.158 132.404 570.158 135.972C570.158 139.541 573.401 142.434 577.401 142.434Z" stroke="#08F14E" stroke-width="8" stroke-linecap="round" stroke-linejoin="round"/>
<defs>
<filter id="filter0_d_0_1" x="0" y="102.062" width="513.944" height="85.5739" filterUnits="userSpaceOnUse" color-interpolation-filters="sRGB">
<feFlood flood-opacity="0" result="BackgroundImageFix"/>
<feColorMatrix in="SourceAlpha" type="matrix" values="0 0 0 0 0 0 0 0 0 0 0 0 0 0 0 0 0 0 127 0" result="hardAlpha"/>
<feOffset dy="4"/>
<feGaussianBlur stdDeviation="2"/>
<feComposite in2="hardAlpha" operator="out"/>
<feColorMatrix type="matrix" values="0 0 0 0 0.032718 0 0 0 0 0.945192 0 0 0 0 0.30646 0 0 0 1 0"/>
<feBlend mode="normal" in2="BackgroundImageFix" result="effect1_dropShadow_0_1"/>
<feBlend mode="normal" in="SourceGraphic" in2="effect1_dropShadow_0_1" result="shape"/>
</filter>
</defs>
</svg>
